<?xml version="1.0" encoding="UTF-8" standalone="no"?>
<!-- Created with Inkscape (http://www.inkscape.org/) -->

<svg
   width="31mm"
   height="27mm"
   viewBox="0 0 31 27"
   version="1.1"
   id="svg1"
   inkscape:version="1.3.2 (091e20e, 2023-11-25, custom)"
   sodipodi:docname="logotop.svg"
   xmlns:inkscape="http://www.inkscape.org/namespaces/inkscape"
   xmlns:sodipodi="http://sodipodi.sourceforge.net/DTD/sodipodi-0.dtd"
   xmlns="http://www.w3.org/2000/svg"
   xmlns:svg="http://www.w3.org/2000/svg">
  <sodipodi:namedview
     id="namedview1"
     pagecolor="#ffffff"
     bordercolor="#000000"
     borderopacity="0.25"
     inkscape:showpageshadow="2"
     inkscape:pageopacity="0.0"
     inkscape:pagecheckerboard="0"
     inkscape:deskcolor="#d1d1d1"
     inkscape:document-units="mm"
     inkscape:zoom="1.139401"
     inkscape:cx="397.13851"
     inkscape:cy="491.04751"
     inkscape:window-width="2880"
     inkscape:window-height="1514"
     inkscape:window-x="-11"
     inkscape:window-y="-11"
     inkscape:window-maximized="1"
     inkscape:current-layer="layer1" />
  <defs
     id="defs1" />
  <g
     inkscape:label="Слой 1"
     inkscape:groupmode="layer"
     id="layer1">
    <path
       class="cls-1"
       d="m 13.706244,2.760371 1.98967,-2.33891003 1.98967,2.33891003 2.10608,-2.47385003 11.30565,13.29002003 -11.30565,13.29002 -2.11667,-2.4765 -1.98966,2.33627 -1.97909,-2.33627 -2.11666,2.4765 L 0.29187153,13.576541 11.600164,0.28652097 13.716834,2.760371 Z m -11.8877265,10.68917 -0.108479,0.127 0.108479,0.127 9.6334765,11.32152 0.14817,0.17463 0.14817,-0.17463 1.95791,-2.29923 1.90765,2.24102 0.082,0.0952 0.0794,-0.0952 1.91029,-2.24102 1.95527,2.29923 0.15081,0.17463 0.14817,-0.17463 9.63348,-11.32152 0.10848,-0.127 -0.10848,-0.127 -9.63348,-11.31094 -0.14817,-0.18521 -0.15081,0.18521 -1.95527,2.29923 -1.91029,-2.25425 -0.0794,-0.0953 -0.082,0.0953 -1.90765,2.24367 -1.95791,-2.28865 -0.14817,-0.17462 -0.14817,0.17462 z m 9.2339565,-1.22767 H 7.0837255 l 6.3764585,-7.493 -1.85208,-2.17487 -9.3847745,11.02254 9.3768345,11.0199 1.85208,-2.17223 -6.3791015,-7.493 h 4.4979115 l 8.22061,9.66523 9.37683,-11.0199 -9.37683,-11.02254 -8.2259,9.66787 z m -6.6145815,2.36538 h 0.02646 a 0.87841666,0.87841666 0 0 0 0.764646,-0.31486 1.2647083,1.2647083 0 0 0 0,-1.43139 0.87312499,0.87312499 0 0 0 -0.764646,-0.3175 h -0.02646 a 0.87047916,0.87047916 0 0 0 -0.762,0.3175 1.2461875,1.2461875 0 0 0 0,1.42875 0.87841666,0.87841666 0 0 0 0.762,0.32014 z m 0,-0.381 a 0.40745833,0.40745833 0 0 0 0.298979,-0.10848 0.57679166,0.57679166 0 0 0 0.137583,-0.23019 0.70643749,0.70643749 0 0 0 0.0344,-0.18521 c 0,-0.0582 0,-0.10054 0,-0.127 a 0.81491666,0.81491666 0 0 0 -0.08731,-0.43127 0.48154166,0.48154166 0 0 0 -0.193146,-0.18256 0.40216666,0.40216666 0 0 0 -0.105834,-0.0318 h -0.08996 -0.08996 a 0.36777083,0.36777083 0 0 0 -0.108479,0.0344 0.47624999,0.47624999 0 0 0 -0.1905,0.18256 0.81227082,0.81227082 0 0 0 -0.08731,0.42862 c 0,0.0344 0,0.0741 0,0.11642 a 0.79374999,0.79374999 0 0 0 0.02117,0.13494 0.63764583,0.63764583 0 0 0 0.132291,0.26458 0.39422916,0.39422916 0 0 0 0.3175,0.127 z m 1.354666,-1.62983 h -0.02646 v 1.95527 h 0.486833 v -0.67205 h 0.439209 0.145521 a 0.87577082,0.87577082 0 0 0 0.1905,-0.0397 0.62970833,0.62970833 0 0 0 0.264583,-0.18257 0.60854166,0.60854166 0 0 0 0.124354,-0.42333 0.52916666,0.52916666 0 0 0 -0.187854,-0.49212 0.91016666,0.91016666 0 0 0 -0.4445,-0.14288 h -0.98425 z m 0.460375,0.38364 v 0.52917 h 0.333375 a 0.43127083,0.43127083 0 0 0 0.243417,-0.0582 0.23283333,0.23283333 0 0 0 0.08731,-0.21167 0.22225,0.22225 0 0 0 -0.08467,-0.19843 0.44185416,0.44185416 0 0 0 -0.246063,-0.0529 z m 1.939396,0 h 0.846667 v -0.38364 h -1.338792 v 1.95527 h 0.489479 v -1.5875 z m 1.624542,-0.38364 h -0.02646 l -0.732896,1.95527 h 0.513291 l 0.124354,-0.36777 h 0.6826255 l 0.124355,0.36777 h 0.515933 l -0.735537,-1.95527 z m -0.02117,1.25677 h 0.4815415 l -0.24077,-0.70644 z m 1.2329625,0.6985 h 0.09 0.082 0.0265 a 0.61912499,0.61912499 0 0 0 0.48683,-0.16669 0.83608332,0.83608332 0 0 0 0.19315,-0.36248 1.0847917,1.0847917 0 0 0 0.0291,-0.20108 q 0,-0.0952 0,-0.17463 l 0.0132,-0.67998 h 0.52916 v 1.5875 h 0.48684 v -1.95791 h -1.46844 l -0.0132,0.93927 a 1.6086666,1.6086666 0 0 1 -0.0635,0.45243 0.26458333,0.26458333 0 0 1 -0.29634,0.19315 h -0.0318 -0.037 -0.0265 v 0.381 z m 2.84162,-0.73555 v -1.21972 h -0.48683 v 1.95527 h 0.48683 l 0.75407,-1.23296 v 1.23296 h 0.48418 v -1.95527 h -0.48418 z m 2.07698,-0.83872 v 1.5875 h 0.48419 v -1.5875 h 0.59002 v -0.381 h -1.66687 v 0.381 z m 1.32292,1.00277 h 0.83343 v -0.3519 h -0.82285 v 0.3519 z m 1.74889,-1.00277 h 0.71173 v 1.5875 h 0.48684 v -1.9685 h -1.66953 v 1.95527 h 0.48684 v -1.5875 z m 1.44463,1.5875 h 0.09 0.0847 0.0265 a 0.61912499,0.61912499 0 0 0 0.48683,-0.16669 0.83608332,0.83608332 0 0 0 0.19315,-0.36248 1.0847917,1.0847917 0 0 0 0.0291,-0.20108 q 0,-0.0953 0,-0.17463 l 0.0132,-0.67998 h 0.52916 v 1.5875 h 0.48684 v -1.97114 h -1.4605 l -0.0132,0.93927 a 1.6139583,1.6139583 0 0 1 -0.0609,0.45243 0.28045833,0.28045833 0 0 1 -0.29634,0.19315 h -0.0344 -0.037 -0.0265 v 0.381 z m 2.84691,-1.22767 v -0.74083 h -0.47889 v 1.95527 h 0.47889 v -0.83609 h 0.23813 c 0,0.0159 0,0.0344 0,0.0503 v 0.0503 a 1.0080625,1.0080625 0 0 0 0.26458,0.52917 0.91016666,0.91016666 0 0 0 0.70115,0.24871 h 0.0265 a 0.87047916,0.87047916 0 0 0 0.76464,-0.3175 1.2461875,1.2461875 0 0 0 0,-1.42875 0.86518749,0.86518749 0 0 0 -0.762,-0.3175 h -0.0265 a 0.94720832,0.94720832 0 0 0 -0.55562,0.13758 0.92339582,0.92339582 0 0 0 -0.2884,0.29634 0.77522916,0.77522916 0 0 0 -0.0847,0.20373 1.1800417,1.1800417 0 0 0 -0.0344,0.15875 z m 1.22503,0.889 a 0.41010416,0.41010416 0 0 0 0.29897,-0.10848 0.57679166,0.57679166 0 0 0 0.13759,-0.23019 0.83608332,0.83608332 0 0 0 0.0344,-0.18521 c 0,-0.0582 0,-0.10054 0,-0.127 a 0.79374999,0.79374999 0 0 0 -0.09,-0.43127 0.46566666,0.46566666 0 0 0 -0.19315,-0.18256 0.38629166,0.38629166 0 0 0 -0.10319,-0.0318 h -0.09 -0.0926 a 0.35189583,0.35189583 0 0 0 -0.10583,0.0344 0.46566666,0.46566666 0 0 0 -0.19315,0.18256 0.81227082,0.81227082 0 0 0 -0.0873,0.42862 c 0,0.0344 0,0.0741 0,0.11642 0,0.0423 0,0.09 0.0212,0.13494 a 0.66939582,0.66939582 0 0 0 0.1323,0.26458 0.39952083,0.39952083 0 0 0 0.32014,0.127 z m 2.64583,-0.36513 h -0.0265 c 0,0.0212 0,0.045 0,0.0688 a 0.48154166,0.48154166 0 0 1 -0.0291,0.0794 0.41010416,0.41010416 0 0 1 -0.11906,0.14817 0.3571875,0.3571875 0 0 1 -0.23548,0.0741 0.3730625,0.3730625 0 0 1 -0.28046,-0.10583 0.59795833,0.59795833 0 0 1 -0.14023,-0.21961 0.94191665,0.94191665 0 0 1 -0.0397,-0.1905 c 0,-0.0582 0,-0.10054 0,-0.12171 a 0.92074999,0.92074999 0 0 1 0.10848,-0.48154 0.42333333,0.42333333 0 0 1 0.5715,-0.127 0.35189583,0.35189583 0 0 1 0.11906,0.12436 0.55033333,0.55033333 0 0 1 0.0318,0.0847 0.41539583,0.41539583 0 0 1 0.0132,0.0662 h 0.4789 a 1.0583333,1.0583333 0 0 0 -0.0185,-0.13758 0.63499999,0.63499999 0 0 0 -0.0556,-0.15346 0.72495832,0.72495832 0 0 0 -0.26459,-0.29369 0.94456249,0.94456249 0 0 0 -0.54768,-0.13229 h -0.0265 a 0.83872916,0.83872916 0 0 0 -0.71173,0.29898 1.2250208,1.2250208 0 0 0 -0.23019,0.76729 0.93397915,0.93397915 0 0 0 0.26458,0.762 1.0583333,1.0583333 0 0 0 0.56356,0.23548 h 0.0661 0.0688 0.0265 a 0.90752082,0.90752082 0 0 0 0.54769,-0.14023 0.79374999,0.79374999 0 0 0 0.26459,-0.30163 0.72495832,0.72495832 0 0 0 0.0556,-0.16668 0.79374999,0.79374999 0 0 0 0.0238,-0.14288 z"
       id="path1"
       style="fill:#ff8335;fill-rule:evenodd;stroke-width:0.265;fill-opacity:1;stroke:none;stroke-opacity:1;stroke-dasharray:none" />
  </g>
</svg>
