<svg xmlns="http://www.w3.org/2000/svg" viewBox="0 0 734.73 100.46"><defs><style>.cls-1{fill:#fff;fill-rule:evenodd;}</style></defs><path class="cls-1" d="M50.7,9.35,58.22.51l7.52,8.84L73.7,0l42.73,50.23L73.7,100.46l-8-9.36-7.52,8.83L50.7,91.1l-8,9.36L0,50.23,42.74,0l8,9.35ZM5.77,49.75l-.41.48.41.48L42.18,93.5l.56.66.56-.66,7.4-8.69,7.21,8.47.31.36.3-.36,7.22-8.47,7.39,8.69.57.66.56-.66,36.41-42.79.41-.48-.41-.48L74.26,7,73.7,6.3,73.13,7l-7.39,8.69L58.52,7.17l-.3-.36-.31.36L50.7,15.65,43.3,7l-.56-.66L42.18,7,5.77,49.75Zm34.9-4.64h-15l24.1-28.32-7-8.22L7.3,50.23,42.74,91.88l7-8.21L25.63,55.35h17L73.7,91.88l35.44-41.65L73.7,8.57,42.61,45.11Zm-25,8.94h.1a3.32,3.32,0,0,0,2.89-1.19,4.78,4.78,0,0,0,0-5.41,3.3,3.3,0,0,0-2.89-1.2h-.1a3.29,3.29,0,0,0-2.88,1.2,4.71,4.71,0,0,0,0,5.4,3.32,3.32,0,0,0,2.88,1.21Zm0-1.44a1.54,1.54,0,0,0,1.13-.41,2.18,2.18,0,0,0,.52-.87,2.67,2.67,0,0,0,.13-.7c0-.22,0-.38,0-.48a3.08,3.08,0,0,0-.33-1.63,1.82,1.82,0,0,0-.73-.69,1.52,1.52,0,0,0-.4-.12l-.34,0-.34,0a1.39,1.39,0,0,0-.41.13,1.8,1.8,0,0,0-.72.69,3.07,3.07,0,0,0-.33,1.62c0,.13,0,.28,0,.44a3,3,0,0,0,.08.51,2.41,2.41,0,0,0,.5,1,1.49,1.49,0,0,0,1.2.48Zm5.12-6.16h-.1v7.39h1.84V51.3h1.66l.55,0a3.31,3.31,0,0,0,.72-.15,2.38,2.38,0,0,0,1-.69,2.3,2.3,0,0,0,.47-1.6A2,2,0,0,0,26.22,47a3.44,3.44,0,0,0-1.68-.54H20.82Zm1.74,1.45v2h1.26a1.63,1.63,0,0,0,.92-.22.88.88,0,0,0,.33-.8.84.84,0,0,0-.32-.75,1.67,1.67,0,0,0-.93-.2Zm7.33,0h3.2V46.45H28v7.39h1.85v-6ZM36,46.45h-.1l-2.77,7.39h1.94l.47-1.39h2.58l.47,1.39h1.95l-2.78-7.39Zm-.08,4.75h1.82l-.91-2.67-.91,2.67Zm4.66,2.64.34,0,.31,0h.1a2.34,2.34,0,0,0,1.84-.63,3.16,3.16,0,0,0,.73-1.37,4.1,4.1,0,0,0,.11-.76q0-.36,0-.66l.05-2.57h2v6h1.84V46.45H42.35L42.3,50a6.08,6.08,0,0,1-.24,1.71,1,1,0,0,1-1.12.73h-.12l-.14,0h-.1v1.44Zm10.74-2.78V46.45H49.48v7.39h1.84l2.85-4.66v4.66H56V46.45H54.17l-2.85,4.61Zm7.85-3.17v6H61v-6h2.23V46.45h-6.3v1.44Zm5,3.79h3.15V50.35H64.21v1.33Zm6.61-3.79h2.69v6h1.84V46.45H69v7.39h1.84v-6Zm5.46,6,.34,0,.32,0H77a2.34,2.34,0,0,0,1.84-.63,3.16,3.16,0,0,0,.73-1.37,4.1,4.1,0,0,0,.11-.76q0-.36,0-.66l.05-2.57h2v6h1.84V46.45H78.05L78,50a6.1,6.1,0,0,1-.23,1.71,1.06,1.06,0,0,1-1.12.73h-.13l-.14,0h-.1v1.44ZM87,49.25v-2.8H85.19v7.39H87V50.68h.9c0,.06,0,.13,0,.19l0,.19a3.81,3.81,0,0,0,1,2,3.44,3.44,0,0,0,2.65.94h.1a3.29,3.29,0,0,0,2.89-1.2,4.71,4.71,0,0,0,0-5.4,3.27,3.27,0,0,0-2.88-1.2h-.1a3.58,3.58,0,0,0-2.1.52,3.49,3.49,0,0,0-1.09,1.12,2.93,2.93,0,0,0-.32.77,4.46,4.46,0,0,0-.13.6Zm4.63,3.36a1.55,1.55,0,0,0,1.13-.41,2.18,2.18,0,0,0,.52-.87,3.16,3.16,0,0,0,.13-.7c0-.22,0-.38,0-.48a3,3,0,0,0-.34-1.63,1.76,1.76,0,0,0-.73-.69,1.46,1.46,0,0,0-.39-.12l-.34,0-.35,0a1.33,1.33,0,0,0-.4.13,1.76,1.76,0,0,0-.73.69,3.07,3.07,0,0,0-.33,1.62c0,.13,0,.28,0,.44s0,.34.08.51a2.53,2.53,0,0,0,.5,1,1.51,1.51,0,0,0,1.21.48Zm10-1.38h-.1c0,.08,0,.17,0,.26a1.82,1.82,0,0,1-.11.3,1.55,1.55,0,0,1-.45.56,1.35,1.35,0,0,1-.89.28,1.41,1.41,0,0,1-1.06-.4,2.26,2.26,0,0,1-.53-.83,3.56,3.56,0,0,1-.15-.72c0-.22,0-.38,0-.46a3.48,3.48,0,0,1,.41-1.82,1.6,1.6,0,0,1,2.16-.48,1.33,1.33,0,0,1,.45.47,2.08,2.08,0,0,1,.12.32,1.57,1.57,0,0,1,.05.25h1.81a4,4,0,0,0-.07-.52,2.4,2.4,0,0,0-.21-.58,2.74,2.74,0,0,0-1-1.11,3.57,3.57,0,0,0-2.07-.5h-.1a3.17,3.17,0,0,0-2.69,1.13,4.63,4.63,0,0,0-.87,2.9,3.53,3.53,0,0,0,1,2.88,4,4,0,0,0,2.13.89h.25l.26,0h.1a3.43,3.43,0,0,0,2.07-.53,3,3,0,0,0,1-1.14,2.74,2.74,0,0,0,.21-.63,3,3,0,0,0,.09-.54Z"/><path class="cls-1" d="M187.55,74.81h7.51a5.21,5.21,0,0,1,3.55,1.25A4,4,0,0,1,200,79.2a4.27,4.27,0,0,1-2,3.85,7.26,7.26,0,0,1-4.83,1,3.8,3.8,0,0,0,1.77-1.46,4.25,4.25,0,0,0,.59-2.28,3.75,3.75,0,0,0-.66-2.24,2,2,0,0,0-1.7-.84h-.23V88.46a4.35,4.35,0,0,0,.22,1.53,2.21,2.21,0,0,0,.75,1h-6.33a2.24,2.24,0,0,0,.73-1,4.54,4.54,0,0,0,.24-1.53V77.33a4.34,4.34,0,0,0-.23-1.52,2.4,2.4,0,0,0-.74-1Zm13.28,0h9.24a1.09,1.09,0,0,0,.28-.08v3.44a2.46,2.46,0,0,0-.85-.76,2.33,2.33,0,0,0-1.19-.28h-2.12v4h3.35V84.3a2.34,2.34,0,0,0-.69-.61,1.91,1.91,0,0,0-.95-.22h-1.71V88a.51.51,0,0,0,.36.58,4.58,4.58,0,0,0,1.39.12h1.85a3.13,3.13,0,0,0,1.35-.29,3.92,3.92,0,0,0,1.26-.92L211.48,91H200.83a2.24,2.24,0,0,0,.73-1,4.81,4.81,0,0,0,.24-1.53V77.33a4.34,4.34,0,0,0-.23-1.52,2.4,2.4,0,0,0-.74-1Zm26.35,0-5.4,6.6,4.92,7.9a4.42,4.42,0,0,0,.59.78,11,11,0,0,0,.91.89l-3.4.09a4.4,4.4,0,0,1-2.31-.51,4.66,4.66,0,0,1-1.57-1.8L218,83.63v4.83a4.35,4.35,0,0,0,.22,1.53,2.07,2.07,0,0,0,.75,1h-6.33a2.24,2.24,0,0,0,.73-1,5.11,5.11,0,0,0,.24-1.53V77.33a4.34,4.34,0,0,0-.23-1.52,2.49,2.49,0,0,0-.74-1H219a2.2,2.2,0,0,0-.75,1,4.36,4.36,0,0,0-.22,1.52v5l3.78-5a2.7,2.7,0,0,0,.32-.58,1.79,1.79,0,0,0,.12-.62,1.07,1.07,0,0,0-.23-.63,3.71,3.71,0,0,0-.69-.69Zm13,2.52a3.77,3.77,0,0,1,.21-1.52,2.29,2.29,0,0,1,.76-1H228.34a2.42,2.42,0,0,1,1.13,1.33,12,12,0,0,1,.37,3.5,22.53,22.53,0,0,1-.67,6.27c-.45,1.42-1.1,2.13-2,2.13a2.32,2.32,0,0,1-.56-.07,1.94,1.94,0,0,1-.53-.18l.3,3.44.61.15a2.76,2.76,0,0,0,.57.06q2.44,0,3.73-3c.85-2,1.28-5.1,1.28-9.29v-2h3.14V88.46a4.32,4.32,0,0,1-.23,1.53,2.26,2.26,0,0,1-.74,1h6.33a2.16,2.16,0,0,1-.76-1,3.77,3.77,0,0,1-.21-1.53V77.33ZM246,74.81h5.86l4.78,13.32a7.78,7.78,0,0,0,.85,1.78A3.31,3.31,0,0,0,258.59,91h-7.37a1.78,1.78,0,0,0,.75-.71,1.84,1.84,0,0,0,.27-1,2.64,2.64,0,0,0-.08-.47c0-.22-.1-.39-.13-.5l-.81-2.26h-4.85l-.8,2.31a3,3,0,0,0-.2.66,3.89,3.89,0,0,0,0,.47,1.73,1.73,0,0,0,.2.81,1.87,1.87,0,0,0,.61.65h-4.89a8.8,8.8,0,0,0,1-1.3,8.23,8.23,0,0,0,.69-1.55l3.72-10.76c.07-.23.13-.44.17-.63a3,3,0,0,0,.06-.59,1.2,1.2,0,0,0-.23-.71,3.44,3.44,0,0,0-.67-.63Zm1.06,9h3.37l-1.66-4.9-1.71,4.9Zm12.86-9a2.92,2.92,0,0,1,.8,1.18,3.83,3.83,0,0,1,.1,1.78l-1.34,10.46a6.73,6.73,0,0,1-.4,1.66,3.21,3.21,0,0,1-.73,1.09H263a1.93,1.93,0,0,1-.89-1,4,4,0,0,1-.08-1.8l.85-7.76,2.89,7.76a4.5,4.5,0,0,0,.47,1.06,3.12,3.12,0,0,0,.8.77,7.45,7.45,0,0,0,1.07.69,13.15,13.15,0,0,0,1.37.58l3.38-10.93.74,7.53c0,.52.07.85.08,1s0,.24,0,.35a2.24,2.24,0,0,1-.21,1A3.19,3.19,0,0,1,273,91h6.35a4.23,4.23,0,0,1-.83-1.36,9,9,0,0,1-.4-2L277,77.12a2.93,2.93,0,0,1,.11-1.48,1.76,1.76,0,0,1,.81-.83H272l-3,9.58-3.55-9.58Zm28.92,0h6.33a2.4,2.4,0,0,0-.77,1,4,4,0,0,0-.2,1.52V88.46a4,4,0,0,0,.2,1.53,2.25,2.25,0,0,0,.77,1h-6.33a2.34,2.34,0,0,0,.74-1,4.32,4.32,0,0,0,.23-1.53v-5h-4.37v5a4.59,4.59,0,0,0,.22,1.53,2.21,2.21,0,0,0,.75,1h-6.32a2.21,2.21,0,0,0,.72-1,4.78,4.78,0,0,0,.25-1.53V77.33a4.1,4.1,0,0,0-.24-1.52,2.47,2.47,0,0,0-.73-1h6.32a2.35,2.35,0,0,0-.75,1,4.61,4.61,0,0,0-.22,1.52v3.85h4.37V77.33a4.34,4.34,0,0,0-.23-1.52,2.49,2.49,0,0,0-.74-1Zm7.87,8.24a9.29,9.29,0,0,1,15.48-6.32,8.24,8.24,0,0,1,2.38,6.07A8.51,8.51,0,0,1,312.11,89a10,10,0,0,1-12.92.18,8,8,0,0,1-2.45-6.1Zm4.62-.64a8.12,8.12,0,0,0,1.25,4.69,3.86,3.86,0,0,0,3.33,1.8,3.61,3.61,0,0,0,2.89-1.35A5.88,5.88,0,0,0,310,83.63a8.6,8.6,0,0,0-1.25-4.89,3.63,3.63,0,0,0-3.09-1.85,3.71,3.71,0,0,0-3.13,1.5,6.42,6.42,0,0,0-1.15,4Zm20.28,3.72,1.8-2.41a1.17,1.17,0,0,1,.34-.3.84.84,0,0,1,.4-.09h6.26l-1.8,2.4a1.49,1.49,0,0,1-.36.33.7.7,0,0,1-.38.07Zm15.91-11.32h15a2.2,2.2,0,0,0-.75,1,4.36,4.36,0,0,0-.22,1.52V88.46a3.77,3.77,0,0,0,.21,1.53,2.16,2.16,0,0,0,.76,1h-6.33a2.24,2.24,0,0,0,.73-1,5.11,5.11,0,0,0,.24-1.53V77.12h-4.25V88.46a4.35,4.35,0,0,0,.22,1.53,2.21,2.21,0,0,0,.75,1h-6.33a2.24,2.24,0,0,0,.73-1,4.54,4.54,0,0,0,.24-1.53V77.33a4.34,4.34,0,0,0-.23-1.52,2.4,2.4,0,0,0-.74-1Zm16.58,0h7.51a5.23,5.23,0,0,1,3.56,1.25,4,4,0,0,1,1.38,3.14,4.27,4.27,0,0,1-2,3.85,7.25,7.25,0,0,1-4.83,1,3.75,3.75,0,0,0,1.77-1.46,4.25,4.25,0,0,0,.59-2.28,3.75,3.75,0,0,0-.66-2.24,2,2,0,0,0-1.7-.84h-.23V88.46a4.35,4.35,0,0,0,.22,1.53,2.21,2.21,0,0,0,.75,1h-6.33a2.16,2.16,0,0,0,.73-1,4.54,4.54,0,0,0,.24-1.53V77.33a4.12,4.12,0,0,0-.23-1.52,2.4,2.4,0,0,0-.74-1Zm13.21,8.24a9.29,9.29,0,0,1,15.48-6.32,8.24,8.24,0,0,1,2.38,6.07A8.51,8.51,0,0,1,382.71,89a10,10,0,0,1-12.92.18,8,8,0,0,1-2.45-6.1Zm4.62-.64a8.12,8.12,0,0,0,1.25,4.69,3.86,3.86,0,0,0,3.33,1.8,3.61,3.61,0,0,0,2.89-1.35,5.88,5.88,0,0,0,1.15-3.92,8.6,8.6,0,0,0-1.25-4.89,3.63,3.63,0,0,0-3.09-1.85,3.71,3.71,0,0,0-3.13,1.5,6.42,6.42,0,0,0-1.15,4Zm15-7.6h6.33a2.2,2.2,0,0,0-.75,1,4.36,4.36,0,0,0-.22,1.52v8l5.4-10.48h4.8a2.35,2.35,0,0,0-.75,1,4.61,4.61,0,0,0-.22,1.52V88.46a4.59,4.59,0,0,0,.22,1.53,2.21,2.21,0,0,0,.75,1h-6.32a2.14,2.14,0,0,0,.72-1,4.78,4.78,0,0,0,.25-1.53v-8L391.69,91h-4.76a2.34,2.34,0,0,0,.74-1,4.32,4.32,0,0,0,.23-1.53V77.33a5.15,5.15,0,0,0-.24-1.52,2.38,2.38,0,0,0-.73-1Zm17.34,3.49.35-3.58q.86,0,2-.21a18.18,18.18,0,0,1,2.49-.16,7.09,7.09,0,0,1,4.29,1.05,3.31,3.31,0,0,1,1.39,2.78,4.07,4.07,0,0,1-.77,2.5A3.85,3.85,0,0,1,411.92,82a4.1,4.1,0,0,1,2.75,1.2,3.72,3.72,0,0,1,1,2.61A4.77,4.77,0,0,1,413.65,90a9.56,9.56,0,0,1-5.5,1.46,11.36,11.36,0,0,1-2.32-.22,8.44,8.44,0,0,1-2-.75l-.65-3.65a6.63,6.63,0,0,0,2.06,1.61,5.14,5.14,0,0,0,2.31.47,4.56,4.56,0,0,0,2.82-.71,2.43,2.43,0,0,0,1-2.06,2.44,2.44,0,0,0-2.73-2.64,5,5,0,0,0-1.21.13,4.11,4.11,0,0,0-1,.38V80.72a2.64,2.64,0,0,0,.68.19,6.58,6.58,0,0,0,.8,0,3.25,3.25,0,0,0,2-.52,2,2,0,0,0,.68-1.67,1.78,1.78,0,0,0-.52-1.41,2.16,2.16,0,0,0-1.49-.46,6.54,6.54,0,0,0-2.16.37,8.38,8.38,0,0,0-2.07,1ZM417,74.81h7.65a4.72,4.72,0,0,1,3.27,1,3.45,3.45,0,0,1,.48,4.68,3.61,3.61,0,0,1-1.95,1.24,4.09,4.09,0,0,1,2.59,1.3,4,4,0,0,1,1,2.86,4.61,4.61,0,0,1-1.57,3.7,5.91,5.91,0,0,1-4,1.34H417a2.24,2.24,0,0,0,.73-1,4.81,4.81,0,0,0,.24-1.53V77.33a4.34,4.34,0,0,0-.23-1.52,2.4,2.4,0,0,0-.74-1Zm5.36,2.4V81a.33.33,0,0,0,.13,0,3.36,3.36,0,0,0,.42,0,1.51,1.51,0,0,0,1.25-.59,2.53,2.53,0,0,0,.46-1.61,2,2,0,0,0-.4-1.34,1.38,1.38,0,0,0-1.12-.48,1.23,1.23,0,0,0-.39,0,1.79,1.79,0,0,0-.35.11Zm0,5.94v5.22a4.9,4.9,0,0,0,.69.18,3.8,3.8,0,0,0,.72.07,1.6,1.6,0,0,0,1.37-.72,3.39,3.39,0,0,0,.54-2,3.2,3.2,0,0,0-.57-2,2,2,0,0,0-1.69-.75Zm8.68-.1a9.29,9.29,0,0,1,15.48-6.32,8.24,8.24,0,0,1,2.38,6.07A8.51,8.51,0,0,1,446.43,89a10,10,0,0,1-12.92.18,8,8,0,0,1-2.45-6.1Zm4.62-.64a8.12,8.12,0,0,0,1.25,4.69,3.86,3.86,0,0,0,3.32,1.8,3.63,3.63,0,0,0,2.9-1.35,5.93,5.93,0,0,0,1.15-3.92,8.6,8.6,0,0,0-1.25-4.89,3.64,3.64,0,0,0-3.1-1.85,3.74,3.74,0,0,0-3.13,1.5,6.48,6.48,0,0,0-1.14,4Zm15.43-7.6A2.54,2.54,0,0,1,452.26,76a6.15,6.15,0,0,1,.35,2.37,26.4,26.4,0,0,1-.53,5.59,19.49,19.49,0,0,1-1.71,4.69h-2v6l2.08.53a5.59,5.59,0,0,1,.57-3.09A2.25,2.25,0,0,1,453.14,91h6.7a2.17,2.17,0,0,1,2.05,1.07,6.35,6.35,0,0,1,.63,3.15l2.08-.53v-6h-2.22V77.33a4.36,4.36,0,0,1,.22-1.52,2.35,2.35,0,0,1,.75-1ZM458,77.12V88.67h-4.64a22.7,22.7,0,0,0,1.32-5.07,48.05,48.05,0,0,0,.41-6.48Zm19.84-2.31.23,3.35a7.64,7.64,0,0,0-1.85-.93,6,6,0,0,0-2-.34,4.16,4.16,0,0,0-3.32,1.41,5.83,5.83,0,0,0-1.19,4,7.82,7.82,0,0,0,1.35,4.91,4.82,4.82,0,0,0,4,1.72,8.78,8.78,0,0,0,2.36-.42,15,15,0,0,0,2.81-1.15l-1.13,3.28a15.28,15.28,0,0,1-2.33.61,15.88,15.88,0,0,1-2.68.22A8.79,8.79,0,0,1,467.45,89a8.51,8.51,0,0,1-2.35-6.12,8.24,8.24,0,0,1,2.44-6.12,8.63,8.63,0,0,1,6.32-2.4,18.34,18.34,0,0,1,1.9.11c.67.08,1.36.2,2.07.35Zm14.34-.09a.9.9,0,0,1-.28.08h-11.5a.73.73,0,0,1-.25-.08l-.9,3.78a3.89,3.89,0,0,1,1.19-.78,3.7,3.7,0,0,1,1.49-.28h1.54v11a4.54,4.54,0,0,1-.24,1.53,2.16,2.16,0,0,1-.73,1h6.33a2.23,2.23,0,0,1-.76-1,4.15,4.15,0,0,1-.21-1.53v-11h1.55a3.23,3.23,0,0,1,1.33.22,1.23,1.23,0,0,1,.63.68l.81-3.62Zm-.32.09h7.64a4.75,4.75,0,0,1,3.28,1,3.45,3.45,0,0,1,.48,4.68,3.6,3.6,0,0,1-2,1.24,4.09,4.09,0,0,1,2.6,1.3,4,4,0,0,1,1,2.86,4.61,4.61,0,0,1-1.57,3.7,5.92,5.92,0,0,1-4,1.34h-7.53a2.24,2.24,0,0,0,.73-1,5.11,5.11,0,0,0,.24-1.53V77.33a4.34,4.34,0,0,0-.23-1.52,2.49,2.49,0,0,0-.74-1Zm5.36,2.4V81l.12,0a3.51,3.51,0,0,0,.43,0,1.52,1.52,0,0,0,1.25-.59,2.53,2.53,0,0,0,.46-1.61,2.1,2.1,0,0,0-.4-1.34,1.4,1.4,0,0,0-1.13-.48,1.31,1.31,0,0,0-.39,0,1.69,1.69,0,0,0-.34.11Zm0,5.94v5.22a4.9,4.9,0,0,0,.69.18,3.78,3.78,0,0,0,.71.07A1.63,1.63,0,0,0,500,87.9a3.39,3.39,0,0,0,.54-2,3.14,3.14,0,0,0-.58-2,2,2,0,0,0-1.68-.75ZM506,74.81h9.24a.92.92,0,0,0,.27-.08v3.44a2.43,2.43,0,0,0-.84-.76,2.35,2.35,0,0,0-1.19-.28h-2.12v4h3.35V84.3a2.25,2.25,0,0,0-.7-.61,1.84,1.84,0,0,0-.94-.22h-1.71V88a.51.51,0,0,0,.36.58,4.58,4.58,0,0,0,1.39.12h1.85a3.13,3.13,0,0,0,1.35-.29,4,4,0,0,0,1.26-.92L516.61,91H506a2.24,2.24,0,0,0,.73-1,5.11,5.11,0,0,0,.24-1.53V77.33a4.34,4.34,0,0,0-.23-1.52,2.49,2.49,0,0,0-.74-1Zm20.6,0h6.33a2.29,2.29,0,0,0-.76,1,3.77,3.77,0,0,0-.21,1.52V88.46a3.77,3.77,0,0,0,.21,1.53,2.16,2.16,0,0,0,.76,1h-6.33a2.34,2.34,0,0,0,.74-1,4.32,4.32,0,0,0,.23-1.53v-5h-4.37v5a4.59,4.59,0,0,0,.22,1.53,2.21,2.21,0,0,0,.75,1h-6.32a2.14,2.14,0,0,0,.72-1,4.78,4.78,0,0,0,.25-1.53V77.33a4.34,4.34,0,0,0-.23-1.52,2.49,2.49,0,0,0-.74-1h6.32a2.35,2.35,0,0,0-.75,1,4.61,4.61,0,0,0-.22,1.52v3.85h4.37V77.33a4.34,4.34,0,0,0-.23-1.52,2.49,2.49,0,0,0-.74-1Zm16.7,0h6.33a2.4,2.4,0,0,0-.77,1,4,4,0,0,0-.2,1.52V88.46a4,4,0,0,0,.2,1.53,2.25,2.25,0,0,0,.77,1h-6.33a2.34,2.34,0,0,0,.74-1,4.32,4.32,0,0,0,.23-1.53v-5h-4.37v5a4.59,4.59,0,0,0,.22,1.53,2.21,2.21,0,0,0,.75,1H534.5a2.16,2.16,0,0,0,.73-1,4.54,4.54,0,0,0,.24-1.53V77.33a4.12,4.12,0,0,0-.23-1.52,2.4,2.4,0,0,0-.74-1h6.33a2.35,2.35,0,0,0-.75,1,4.61,4.61,0,0,0-.22,1.52v3.85h4.37V77.33a4.34,4.34,0,0,0-.23-1.52,2.49,2.49,0,0,0-.74-1Zm11.24,0h5.87l4.78,13.32a8.23,8.23,0,0,0,.84,1.78A3.43,3.43,0,0,0,567.07,91H559.7a1.9,1.9,0,0,0,.75-.71,1.84,1.84,0,0,0,.27-1,2.64,2.64,0,0,0-.08-.47c-.06-.22-.1-.39-.13-.5l-.81-2.26h-4.85L554,88.39a2.89,2.89,0,0,0-.19.66,2.56,2.56,0,0,0,0,.47,1.73,1.73,0,0,0,.2.81,1.78,1.78,0,0,0,.61.65h-4.9a6.73,6.73,0,0,0,1.74-2.85l3.71-10.76a5.2,5.2,0,0,0,.18-.63,3,3,0,0,0,.06-.59,1.15,1.15,0,0,0-.24-.71,2.94,2.94,0,0,0-.67-.63Zm1.07,9h3.37l-1.66-4.9-1.71,4.9Zm17.55-9a5.61,5.61,0,0,0-3.82,1.29,4.23,4.23,0,0,0-1.49,3.37,4.29,4.29,0,0,0,.74,2.53,4,4,0,0,0,2.21,1.54l-2.24,3.79a21.93,21.93,0,0,1-1.37,2A10.26,10.26,0,0,1,565.66,91l3.12.16a3.83,3.83,0,0,0,2.19-.51A6.45,6.45,0,0,0,572.89,88l2.05-4.15h.21v4.57a4.81,4.81,0,0,1-.24,1.53,2.24,2.24,0,0,1-.73,1h6.33a2.16,2.16,0,0,1-.76-1,3.77,3.77,0,0,1-.21-1.53V77.33a4.36,4.36,0,0,1,.22-1.52,2.2,2.2,0,0,1,.75-1Zm2,2.31v5.73a3.2,3.2,0,0,1-2-.95,2.64,2.64,0,0,1-.8-2A3,3,0,0,1,573,78a2.21,2.21,0,0,1,1.76-.85Zm18.78-3.47H600a2.79,2.79,0,0,0-.72.94,3,3,0,0,0-.25,1.28,6.79,6.79,0,0,1,5.42,1.49,6.34,6.34,0,0,1-.09,9.52,7.12,7.12,0,0,1-5.33,1.58,4,4,0,0,0,.22,1.52,2.47,2.47,0,0,0,.75,1h-6.09a2.5,2.5,0,0,0,.72-1,3.93,3.93,0,0,0,.25-1.52A6.71,6.71,0,0,1,589.48,87a6.33,6.33,0,0,1,.11-9.5,7.12,7.12,0,0,1,5.31-1.62,6.69,6.69,0,0,0-.38-1.47,2.66,2.66,0,0,0-.59-.75Zm5.12,4.65V86a2.61,2.61,0,0,0,2.27-1,4.28,4.28,0,0,0,.88-2.76,4.7,4.7,0,0,0-.84-3,2.67,2.67,0,0,0-2.31-1.06ZM594.9,86V78.3a2.6,2.6,0,0,0-2.27,1,4.18,4.18,0,0,0-.85,2.73,4.8,4.8,0,0,0,.82,3,2.59,2.59,0,0,0,2.3,1Zm13.37-11.22h6.33a2.2,2.2,0,0,0-.75,1,4.36,4.36,0,0,0-.22,1.52v8L619,74.81h4.8a2.35,2.35,0,0,0-.75,1,4.61,4.61,0,0,0-.22,1.52V88.46a4.59,4.59,0,0,0,.22,1.53,2.21,2.21,0,0,0,.75,1h-6.32a2.14,2.14,0,0,0,.72-1,4.78,4.78,0,0,0,.25-1.53v-8L613,91h-4.76a2.34,2.34,0,0,0,.74-1,4.32,4.32,0,0,0,.23-1.53V77.33a5.15,5.15,0,0,0-.24-1.52,2.38,2.38,0,0,0-.73-1Zm17.37,0h7.5a5.22,5.22,0,0,1,3.56,1.25,4,4,0,0,1,1.38,3.14,4.25,4.25,0,0,1-2,3.85,7.22,7.22,0,0,1-4.82,1A3.77,3.77,0,0,0,633,82.59a4.25,4.25,0,0,0,.59-2.28,3.62,3.62,0,0,0-.66-2.24,2,2,0,0,0-1.69-.84H631V88.46a4.59,4.59,0,0,0,.22,1.53,2.21,2.21,0,0,0,.75,1h-6.32a2.21,2.21,0,0,0,.72-1,4.78,4.78,0,0,0,.25-1.53V77.33a4.34,4.34,0,0,0-.23-1.52,2.59,2.59,0,0,0-.74-1Zm14,0a3,3,0,0,1,.79,1.18,4,4,0,0,1,.11,1.78l-1.34,10.46a7.17,7.17,0,0,1-.41,1.66A3.19,3.19,0,0,1,638,91h4.64a1.93,1.93,0,0,1-.89-1,4,4,0,0,1-.08-1.8l.85-7.76,2.89,7.76a4.5,4.5,0,0,0,.47,1.06,3.12,3.12,0,0,0,.8.77,7.45,7.45,0,0,0,1.07.69,12.54,12.54,0,0,0,1.38.58l3.37-10.93.74,7.53c0,.52.07.85.08,1s0,.24,0,.35a2.24,2.24,0,0,1-.21,1,3.19,3.19,0,0,1-.55.82h6.35a4.41,4.41,0,0,1-.83-1.36,9,9,0,0,1-.4-2l-1.08-10.46a2.93,2.93,0,0,1,.11-1.48,1.76,1.76,0,0,1,.81-.83h-5.91l-3,9.58-3.55-9.58Zm23.46,0h5.87l4.78,13.32a7.39,7.39,0,0,0,.84,1.78A3.41,3.41,0,0,0,675.61,91h-7.36a1.9,1.9,0,0,0,.75-.71,1.72,1.72,0,0,0,.18-1.43c0-.22-.09-.39-.12-.5l-.81-2.26H663.4l-.81,2.31a3,3,0,0,0-.2.66,3.83,3.83,0,0,0,0,.47,1.73,1.73,0,0,0,.19.81,1.82,1.82,0,0,0,.62.65h-4.9a8.18,8.18,0,0,0,1-1.3,7.64,7.64,0,0,0,.69-1.55l3.72-10.76a3.74,3.74,0,0,0,.17-.63,3,3,0,0,0,.06-.59,1.2,1.2,0,0,0-.23-.71,3.17,3.17,0,0,0-.67-.63Zm1.06,9h3.37l-1.66-4.9Z"/><path class="cls-1" d="M130,33.19a27.75,27.75,0,0,1,7.78-19.64q7.78-8.3,21.34-8.29,12.9,0,20.53,7.63t7.63,19.49a27.2,27.2,0,0,1-8,19.79q-7.89,7.92-21.16,7.92-12.45,0-20.31-7.33T130,33.19Zm14.82-2.07q0,9.25,4,15a12.38,12.38,0,0,0,10.67,5.78,11.64,11.64,0,0,0,9.3-4.33q3.67-4.34,3.67-12.56,0-9.79-4-15.71t-9.93-5.93a11.92,11.92,0,0,0-10,4.81c-2.45,3.22-3.67,7.51-3.67,12.9ZM192.26,6.74h24.09a16.89,16.89,0,0,1,11.41,4,12.85,12.85,0,0,1,4.44,10.08q0,8.22-6.52,12.37t-15.49,3.19a12.05,12.05,0,0,0,5.67-4.67,13.61,13.61,0,0,0,1.89-7.34,11.87,11.87,0,0,0-2.11-7.18,6.5,6.5,0,0,0-5.45-2.67h-.74v36a14.31,14.31,0,0,0,.71,4.92,6.81,6.81,0,0,0,2.41,3.15H192.26a7,7,0,0,0,2.33-3.15,15.43,15.43,0,0,0,.78-4.92V14.81a13.33,13.33,0,0,0-.74-4.85,7.72,7.72,0,0,0-2.37-3.22Zm42.61,0h32.39c.34,0,.66,0,1,0a2.88,2.88,0,0,0,1-.26l.75,12.15A6.67,6.67,0,0,0,267.22,16a10.58,10.58,0,0,0-4.48-.77H252.07V50.54a14.34,14.34,0,0,0,.7,4.92,6.81,6.81,0,0,0,2.41,3.15H234.87a7,7,0,0,0,2.34-3.15,15.18,15.18,0,0,0,.77-4.92V14.81a13.33,13.33,0,0,0-.74-4.85,7.72,7.72,0,0,0-2.37-3.22Zm46.76,0a9.9,9.9,0,0,1,2.15,2,3.65,3.65,0,0,1,.74,2.26,9.92,9.92,0,0,1-.18,1.89,16.25,16.25,0,0,1-.56,2L271.85,49.5a24.89,24.89,0,0,1-2.22,5,24.35,24.35,0,0,1-3.34,4.15H282a5.82,5.82,0,0,1-2-2.07,5.46,5.46,0,0,1-.63-2.6,8.64,8.64,0,0,1,.74-3.63l2.6-7.41h15.56l2.59,7.26c.1.35.24.88.41,1.6a7.72,7.72,0,0,1,.26,1.52,5.93,5.93,0,0,1-.85,3.07,5.85,5.85,0,0,1-2.41,2.26H322a10.45,10.45,0,0,1-3.45-3.41,25.69,25.69,0,0,1-2.7-5.7L300.46,6.74ZM285,35.49l5.49-15.71,5.33,15.71ZM364,14.81V50.54a12.68,12.68,0,0,0,.67,4.92,7,7,0,0,0,2.44,3.15h-20.3a7.37,7.37,0,0,0,2.37-3.15,13.78,13.78,0,0,0,.74-4.92V14.15H339.81V20.6q0,20.15-4.11,29.82t-12,9.67a9.51,9.51,0,0,1-1.82-.18c-.62-.12-1.27-.28-2-.48l-1-11a8.35,8.35,0,0,0,1.71.59,7.79,7.79,0,0,0,1.78.22q4.14,0,6.3-6.85t2.15-20.12q-.07-8.31-1.19-11.23a7.7,7.7,0,0,0-3.63-4.26h41A7.47,7.47,0,0,0,364.64,10a12.45,12.45,0,0,0-.67,4.85Zm8.89-8.07h20.31A7.25,7.25,0,0,0,390.76,10a14.08,14.08,0,0,0-.71,4.85V40.38L407.4,6.74h15.41A7.25,7.25,0,0,0,420.4,10a14.1,14.1,0,0,0-.7,4.85V50.54a14.34,14.34,0,0,0,.7,4.92,6.81,6.81,0,0,0,2.41,3.15h-20.3a7.05,7.05,0,0,0,2.33-3.15,15.43,15.43,0,0,0,.78-4.92V25L388.13,58.61H372.86a7.21,7.21,0,0,0,2.37-3.15,13.56,13.56,0,0,0,.74-4.92V14.81A15.24,15.24,0,0,0,375.2,10a7.48,7.48,0,0,0-2.34-3.22Zm93.23-.3L463.5,18.08a4.05,4.05,0,0,0-2-2.19,10.11,10.11,0,0,0-4.26-.7h-5V50.54a12.68,12.68,0,0,0,.67,4.92,7.08,7.08,0,0,0,2.44,3.15H435a7,7,0,0,0,2.33-3.15,15.43,15.43,0,0,0,.78-4.92V15.19h-5a12.23,12.23,0,0,0-4.78.88,12.81,12.81,0,0,0-3.82,2.52l2.89-12.15a1.8,1.8,0,0,0,.81.26c.3,0,.65,0,1,0h34.91c.34,0,.66,0,1,0a2.32,2.32,0,0,0,.89-.26Zm-.67,36.61h20.09a2,2,0,0,0,1.22-.22,4.1,4.1,0,0,0,1.15-1l5.78-7.71H473.57a2.67,2.67,0,0,0-1.29.3,3.63,3.63,0,0,0-1.08,1l-5.78,7.71Zm33.8-36.31h48A7.25,7.25,0,0,0,544.83,10a14.1,14.1,0,0,0-.7,4.85V50.54a12.89,12.89,0,0,0,.66,4.92,7.1,7.1,0,0,0,2.45,3.15H526.93a7,7,0,0,0,2.34-3.15,15.43,15.43,0,0,0,.78-4.92V14.15H516.41V50.54a14.34,14.34,0,0,0,.7,4.92,6.87,6.87,0,0,0,2.41,3.15h-20.3a7.05,7.05,0,0,0,2.33-3.15,15.43,15.43,0,0,0,.78-4.92V14.81a13.55,13.55,0,0,0-.74-4.85,7.89,7.89,0,0,0-2.37-3.22Zm93,8.07a12.64,12.64,0,0,1,.67-4.85,7.55,7.55,0,0,1,2.44-3.22h-41A7.7,7.7,0,0,1,558,11q1.11,2.92,1.19,11.23,0,13.26-2.15,20.12t-6.3,6.85a7.86,7.86,0,0,1-1.78-.22,8.05,8.05,0,0,1-1.7-.59l1,11c.69.2,1.35.36,2,.48a9.41,9.41,0,0,0,1.81.18q7.86,0,12-9.67t4.11-29.82V14.15h10.08V50.54a13.78,13.78,0,0,1-.74,4.92A7.21,7.21,0,0,1,575,58.61h20.3a7.08,7.08,0,0,1-2.44-3.15,12.88,12.88,0,0,1-.67-4.92V14.81Zm25.5,12.38h7.7a25.29,25.29,0,0,1,9.64-15.93,29.42,29.42,0,0,1,18.52-6q12.75,0,20.24,7.59t7.55,19.53q0,11.85-7.81,19.79t-20.94,7.92q-12.75,0-20-7.33A26.46,26.46,0,0,1,624.9,34.6h-7.18V50.54a14.34,14.34,0,0,0,.7,4.92,6.81,6.81,0,0,0,2.41,3.15H600.52a7,7,0,0,0,2.34-3.15,15.18,15.18,0,0,0,.77-4.92V14.81a13.33,13.33,0,0,0-.74-4.85,7.72,7.72,0,0,0-2.37-3.22h20.31A7.25,7.25,0,0,0,618.42,10a14.1,14.1,0,0,0-.7,4.85V27.19Zm21.19,3.93q0,9.25,4,15a12.38,12.38,0,0,0,10.67,5.78,11.55,11.55,0,0,0,9.27-4.33q3.63-4.34,3.7-12.56,0-9.79-4-15.71t-9.93-5.93a11.92,11.92,0,0,0-10,4.81c-2.45,3.22-3.67,7.51-3.67,12.9ZM727,6.74l.74,10.74a25.69,25.69,0,0,0-5.93-3,19.25,19.25,0,0,0-6.37-1.11q-6.75,0-10.63,4.52t-3.82,12.74q0,10.23,4.33,15.75t12.86,5.52a28.22,28.22,0,0,0,7.56-1.33,47.18,47.18,0,0,0,9-3.71L731.1,57.43a47.67,47.67,0,0,1-7.48,2,48.85,48.85,0,0,1-8.6.7q-13.86,0-21.38-7.85T686.12,32.6q0-11.93,7.82-19.64t20.26-7.7a53,53,0,0,1,6.12.37A63.68,63.68,0,0,1,727,6.74Z"/></svg>