<?xml version="1.0" encoding="UTF-8" standalone="no"?>
<!-- Created with Inkscape (http://www.inkscape.org/) -->

<svg
   width="165mm"
   height="30mm"
   viewBox="0 0 165 30"
   version="1.1"
   id="svg1"
   inkscape:version="1.3.2 (091e20e, 2023-11-25, custom)"
   sodipodi:docname="logotopbutton.svg"
   xmlns:inkscape="http://www.inkscape.org/namespaces/inkscape"
   xmlns:sodipodi="http://sodipodi.sourceforge.net/DTD/sodipodi-0.dtd"
   xmlns="http://www.w3.org/2000/svg"
   xmlns:svg="http://www.w3.org/2000/svg">
  <sodipodi:namedview
     id="namedview1"
     pagecolor="#ffffff"
     bordercolor="#000000"
     borderopacity="0.25"
     inkscape:showpageshadow="2"
     inkscape:pageopacity="0.0"
     inkscape:pagecheckerboard="0"
     inkscape:deskcolor="#d1d1d1"
     inkscape:document-units="mm"
     inkscape:zoom="1.6113563"
     inkscape:cx="464.51552"
     inkscape:cy="314.95207"
     inkscape:window-width="2880"
     inkscape:window-height="1514"
     inkscape:window-x="-11"
     inkscape:window-y="-11"
     inkscape:window-maximized="1"
     inkscape:current-layer="layer1" />
  <defs
     id="defs1" />
  <g
     inkscape:label="Слой 1"
     inkscape:groupmode="layer"
     id="layer1">
    <path
       class="cls-1"
       d="m 17.867554,20.942513 h 1.98702 a 1.3784791,1.3784791 0 0 1 0.939271,0.33073 1.0583333,1.0583333 0 0 1 0.367771,0.83079 1.1297708,1.1297708 0 0 1 -0.529167,1.01865 1.920875,1.920875 0 0 1 -1.277937,0.26458 1.0054167,1.0054167 0 0 0 0.468312,-0.38629 1.1244792,1.1244792 0 0 0 0.156105,-0.60325 0.99218749,0.99218749 0 0 0 -0.174625,-0.59267 0.52916666,0.52916666 0 0 0 -0.449792,-0.22225 h -0.06085 v 2.97127 a 1.1509375,1.1509375 0 0 0 0.05821,0.40481 0.58472916,0.58472916 0 0 0 0.198438,0.26459 h -1.674813 a 0.59266666,0.59266666 0 0 0 0.193146,-0.26459 1.2012083,1.2012083 0 0 0 0.0635,-0.40481 v -2.94481 a 1.1482917,1.1482917 0 0 0 -0.06085,-0.40217 0.63499999,0.63499999 0 0 0 -0.195792,-0.26458 z m 3.513666,0 h 2.44475 a 0.28839583,0.28839583 0 0 0 0.07408,-0.0212 v 0.91017 a 0.65087499,0.65087499 0 0 0 -0.224895,-0.20108 0.61647916,0.61647916 0 0 0 -0.314855,-0.0741 h -0.560916 v 1.05834 h 0.886354 v 0.83872 a 0.61912499,0.61912499 0 0 0 -0.182563,-0.16139 0.50535416,0.50535416 0 0 0 -0.251354,-0.0582 h -0.452437 v 1.19856 a 0.1349375,0.1349375 0 0 0 0.09525,0.15346 1.2117917,1.2117917 0 0 0 0.367771,0.0317 h 0.489479 a 0.82814582,0.82814582 0 0 0 0.357187,-0.0767 1.0371667,1.0371667 0 0 0 0.333375,-0.24341 l -0.243416,0.92868 h -2.817813 a 0.59266666,0.59266666 0 0 0 0.193146,-0.26458 1.2726458,1.2726458 0 0 0 0.0635,-0.40481 v -2.94746 a 1.1482917,1.1482917 0 0 0 -0.06085,-0.40217 0.63499999,0.63499999 0 0 0 -0.195792,-0.26458 z m 6.971771,0 -1.42875,1.74625 1.30175,2.09021 a 1.1694583,1.1694583 0 0 0 0.156104,0.20637 2.9104166,2.9104166 0 0 0 0.240771,0.23548 l -0.899583,0.0238 a 1.1641667,1.1641667 0 0 1 -0.611188,-0.13493 1.2329583,1.2329583 0 0 1 -0.415396,-0.47625 l -0.772583,-1.35732 v 1.27795 a 1.1509375,1.1509375 0 0 0 0.05821,0.40481 0.54768749,0.54768749 0 0 0 0.198438,0.26459 h -1.674813 a 0.59266666,0.59266666 0 0 0 0.193146,-0.26459 1.3520208,1.3520208 0 0 0 0.0635,-0.40481 v -2.94482 a 1.1482917,1.1482917 0 0 0 -0.06085,-0.40217 0.65881249,0.65881249 0 0 0 -0.195792,-0.26458 h 1.68275 a 0.58208333,0.58208333 0 0 0 -0.198437,0.26458 1.1535833,1.1535833 0 0 0 -0.05821,0.40217 v 1.32292 l 1.000125,-1.32292 a 0.71437499,0.71437499 0 0 0 0.08467,-0.15346 0.47360416,0.47360416 0 0 0 0.03175,-0.16404 0.28310416,0.28310416 0 0 0 -0.06085,-0.16669 0.98160415,0.98160415 0 0 0 -0.182563,-0.18256 z m 3.439583,0.66675 a 0.99747915,0.99747915 0 0 1 0.05556,-0.40217 0.60589583,0.60589583 0 0 1 0.201083,-0.26458 h -3.389312 a 0.64029166,0.64029166 0 0 1 0.298979,0.35189 3.175,3.175 0 0 1 0.0979,0.92605 5.9610624,5.9610624 0 0 1 -0.177271,1.65893 c -0.119063,0.37571 -0.291042,0.56357 -0.529167,0.56357 a 0.61383333,0.61383333 0 0 1 -0.148167,-0.0185 0.51329166,0.51329166 0 0 1 -0.140229,-0.0476 l 0.07938,0.91017 0.161396,0.0397 a 0.73024999,0.73024999 0 0 0 0.150813,0.0159 q 0.645583,0 0.986895,-0.79375 c 0.224896,-0.52917 0.338667,-1.34938 0.338667,-2.45798 v -0.52917 h 0.830792 v 2.99244 a 1.143,1.143 0 0 1 -0.06085,0.40481 0.59795833,0.59795833 0 0 1 -0.195792,0.26459 h 1.674812 a 0.57149999,0.57149999 0 0 1 -0.201083,-0.26459 0.99747915,0.99747915 0 0 1 -0.05556,-0.40481 v -2.94481 z m 1.539875,-0.66675 h 1.550458 l 1.264709,3.52426 a 2.0584583,2.0584583 0 0 0 0.224896,0.47095 0.87577082,0.87577082 0 0 0 0.291041,0.2884 h -1.949979 a 0.47095833,0.47095833 0 0 0 0.198438,-0.18785 0.48683333,0.48683333 0 0 0 0.07144,-0.26458 0.69849999,0.69849999 0 0 0 -0.02117,-0.12436 c 0,-0.0582 -0.02646,-0.10319 -0.03439,-0.13229 l -0.214313,-0.59796 H 33.43035 l -0.211667,0.61119 a 0.79374999,0.79374999 0 0 0 -0.05292,0.17462 1.0292292,1.0292292 0 0 0 0,0.12436 0.45772916,0.45772916 0 0 0 0.05292,0.21431 0.49477083,0.49477083 0 0 0 0.161396,0.17198 h -1.293812 a 2.3283333,2.3283333 0 0 0 0.264583,-0.34396 2.1775208,2.1775208 0 0 0 0.182563,-0.4101 l 0.98425,-2.84693 c 0.01852,-0.0608 0.03439,-0.11642 0.04498,-0.16669 a 0.79374999,0.79374999 0 0 0 0.01588,-0.1561 0.3175,0.3175 0 0 0 -0.06085,-0.18786 0.91016666,0.91016666 0 0 0 -0.177271,-0.16668 z m 0.280459,2.38125 h 0.891645 l -0.439208,-1.29646 z m 3.402541,-2.38125 a 0.77258332,0.77258332 0 0 1 0.211667,0.31221 1.0133542,1.0133542 0 0 1 0.02646,0.47096 l -0.354542,2.76754 a 1.7806458,1.7806458 0 0 1 -0.105833,0.43921 0.84931249,0.84931249 0 0 1 -0.193146,0.28839 h 1.230313 a 0.51064583,0.51064583 0 0 1 -0.235479,-0.26458 1.0583333,1.0583333 0 0 1 -0.02117,-0.47625 l 0.224896,-2.05317 0.764646,2.05317 a 1.190625,1.190625 0 0 0 0.124354,0.28047 0.82549999,0.82549999 0 0 0 0.211666,0.20373 1.9711458,1.9711458 0 0 0 0.283105,0.18256 3.4792708,3.4792708 0 0 0 0.362479,0.15346 l 0.894291,-2.89191 0.195792,1.99231 c 0,0.1376 0.01852,0.22491 0.02117,0.26459 0.0026,0.0397 0,0.0635 0,0.0926 a 0.59266666,0.59266666 0 0 1 -0.05556,0.26458 0.84402082,0.84402082 0 0 1 -0.124354,0.20373 h 1.680104 a 1.1191875,1.1191875 0 0 1 -0.219604,-0.35983 2.38125,2.38125 0 0 1 -0.105833,-0.52917 l -0.296334,-2.78341 a 0.77522916,0.77522916 0 0 1 0.0291,-0.39159 0.46566666,0.46566666 0 0 1 0.214312,-0.2196 h -1.566333 l -0.79375,2.53471 -0.939271,-2.53471 z m 7.65175,0 h 1.674813 a 0.63499999,0.63499999 0 0 0 -0.20373,0.26458 1.0583333,1.0583333 0 0 0 -0.05292,0.40217 v 2.94481 a 1.0583333,1.0583333 0 0 0 0.05292,0.40481 0.59531249,0.59531249 0 0 0 0.20373,0.26459 h -1.674813 a 0.61912499,0.61912499 0 0 0 0.195792,-0.26459 1.143,1.143 0 0 0 0.06085,-0.40481 v -1.32292 h -1.156229 v 1.32292 a 1.2144375,1.2144375 0 0 0 0.05821,0.40481 0.58472916,0.58472916 0 0 0 0.198438,0.26459 h -1.672167 a 0.58472916,0.58472916 0 0 0 0.1905,-0.26459 1.2647083,1.2647083 0 0 0 0.06615,-0.40481 v -2.94481 a 1.0847917,1.0847917 0 0 0 -0.0635,-0.40217 0.65352083,0.65352083 0 0 0 -0.193146,-0.26458 h 1.672167 a 0.62177083,0.62177083 0 0 0 -0.198438,0.26458 1.2197292,1.2197292 0 0 0 -0.05821,0.40217 v 1.01864 h 1.156229 v -1.01864 a 1.1482917,1.1482917 0 0 0 -0.06085,-0.40217 0.65881249,0.65881249 0 0 0 -0.195792,-0.26458 z m 2.082271,2.18017 a 2.4579791,2.4579791 0 0 1 4.095749,-1.67217 2.1801666,2.1801666 0 0 1 0.629709,1.60602 2.2516041,2.2516041 0 0 1 -0.650875,1.64042 2.6458333,2.6458333 0 0 1 -3.418416,0.0476 2.1166666,2.1166666 0 0 1 -0.64823,-1.61397 z m 1.222374,-0.16934 a 2.1484166,2.1484166 0 0 0 0.33073,1.2409 1.0212917,1.0212917 0 0 0 0.881062,0.47625 0.95514582,0.95514582 0 0 0 0.764646,-0.35719 1.55575,1.55575 0 0 0 0.3175,-1.03717 2.2754166,2.2754166 0 0 0 -0.330729,-1.29381 0.96043749,0.96043749 0 0 0 -0.817563,-0.48948 0.98160415,0.98160415 0 0 0 -0.828146,0.39688 1.698625,1.698625 0 0 0 -0.30427,1.05833 z m 5.36575,0.98425 0.47625,-0.63764 a 0.3095625,0.3095625 0 0 1 0.08996,-0.0794 0.22225,0.22225 0 0 1 0.105834,-0.0238 h 1.656291 l -0.47625,0.635 a 0.39422916,0.39422916 0 0 1 -0.09525,0.0873 0.18520833,0.18520833 0 0 1 -0.100541,0.0185 z m 4.209521,-2.99508 h 3.96875 a 0.58208333,0.58208333 0 0 0 -0.198437,0.26458 1.1535833,1.1535833 0 0 0 -0.05821,0.40217 v 2.94481 a 0.99747915,0.99747915 0 0 0 0.05556,0.40481 0.57149999,0.57149999 0 0 0 0.201083,0.26459 h -1.674813 a 0.59266666,0.59266666 0 0 0 0.193145,-0.26459 1.3520208,1.3520208 0 0 0 0.0635,-0.40481 v -3.00037 h -1.124479 v 3.00037 a 1.1509375,1.1509375 0 0 0 0.05821,0.40481 0.58472916,0.58472916 0 0 0 0.198438,0.26459 H 57.55505 a 0.59266666,0.59266666 0 0 0 0.193145,-0.26459 1.2012083,1.2012083 0 0 0 0.0635,-0.40481 v -2.94481 a 1.1482917,1.1482917 0 0 0 -0.06085,-0.40217 0.63499999,0.63499999 0 0 0 -0.195791,-0.26458 z m 4.386792,0 h 1.987021 a 1.3837708,1.3837708 0 0 1 0.941916,0.33073 1.0583333,1.0583333 0 0 1 0.365125,0.83079 1.1297708,1.1297708 0 0 1 -0.529166,1.01865 1.9182291,1.9182291 0 0 1 -1.277938,0.26458 0.99218749,0.99218749 0 0 0 0.468313,-0.38629 1.1244792,1.1244792 0 0 0 0.156104,-0.60325 0.99218749,0.99218749 0 0 0 -0.174625,-0.59267 0.52916666,0.52916666 0 0 0 -0.449792,-0.22225 h -0.06085 v 2.97127 a 1.1509375,1.1509375 0 0 0 0.05821,0.40481 0.58472916,0.58472916 0 0 0 0.198438,0.26459 H 61.94185 a 0.57149999,0.57149999 0 0 0 0.193146,-0.26459 1.2012083,1.2012083 0 0 0 0.0635,-0.40481 v -2.94481 a 1.0900833,1.0900833 0 0 0 -0.06085,-0.40217 0.63499999,0.63499999 0 0 0 -0.195792,-0.26458 z m 3.495145,2.18017 a 2.4579791,2.4579791 0 0 1 4.095751,-1.67217 2.1801666,2.1801666 0 0 1 0.629708,1.60602 2.2516041,2.2516041 0 0 1 -0.650875,1.64042 2.6458333,2.6458333 0 0 1 -3.418417,0.0476 2.1166666,2.1166666 0 0 1 -0.648229,-1.61397 z m 1.222375,-0.16934 a 2.1484166,2.1484166 0 0 0 0.33073,1.2409 1.0212917,1.0212917 0 0 0 0.881063,0.47625 0.95514582,0.95514582 0 0 0 0.764645,-0.35719 1.55575,1.55575 0 0 0 0.304271,-1.03717 2.2754166,2.2754166 0 0 0 -0.330729,-1.29381 0.96043749,0.96043749 0 0 0 -0.817562,-0.48948 0.98160415,0.98160415 0 0 0 -0.828147,0.39688 1.698625,1.698625 0 0 0 -0.304271,1.05833 z m 3.968751,-2.01083 h 1.674812 a 0.58208333,0.58208333 0 0 0 -0.198437,0.26458 1.1535833,1.1535833 0 0 0 -0.05821,0.40217 v 2.11667 l 1.42875,-2.77284 h 1.269999 a 0.62177083,0.62177083 0 0 0 -0.198437,0.26459 1.2197292,1.2197292 0 0 0 -0.05821,0.40216 v 2.93423 a 1.2144375,1.2144375 0 0 0 0.05821,0.40481 0.58472916,0.58472916 0 0 0 0.198437,0.26459 h -1.672166 a 0.56620833,0.56620833 0 0 0 0.1905,-0.26459 1.2647083,1.2647083 0 0 0 0.06615,-0.40481 v -2.11667 l -1.441979,2.78871 H 70.62018 a 0.61912499,0.61912499 0 0 0 0.195792,-0.26458 1.143,1.143 0 0 0 0.06085,-0.40481 v -2.94746 a 1.3626041,1.3626041 0 0 0 -0.0635,-0.40217 0.62970833,0.62970833 0 0 0 -0.193146,-0.26458 z m 4.587875,0.92339 0.0926,-0.9472 q 0.227542,0 0.529167,-0.0556 a 4.8101249,4.8101249 0 0 1 0.658812,-0.0423 1.8758958,1.8758958 0 0 1 1.135064,0.27781 0.87577082,0.87577082 0 0 1 0.36777,0.73554 1.0768542,1.0768542 0 0 1 -0.20373,0.66146 1.0186458,1.0186458 0 0 1 -0.555625,0.34925 1.0847917,1.0847917 0 0 1 0.727605,0.3175 0.98424999,0.98424999 0 0 1 0.26458,0.69057 1.2620625,1.2620625 0 0 1 -0.53446,1.1086 2.5294166,2.5294166 0 0 1 -1.455204,0.38629 3.0056666,3.0056666 0 0 1 -0.613833,-0.0582 2.2330833,2.2330833 0 0 1 -0.529167,-0.19843 l -0.171979,-0.96572 a 1.7541875,1.7541875 0 0 0 0.545042,0.42597 1.3599583,1.3599583 0 0 0 0.611187,0.12436 1.2065,1.2065 0 0 0 0.746125,-0.18785 0.64293749,0.64293749 0 0 0 0.264583,-0.54505 0.64558333,0.64558333 0 0 0 -0.722312,-0.69851 1.3229166,1.3229166 0 0 0 -0.320146,0.0344 1.0874375,1.0874375 0 0 0 -0.264583,0.10054 v -0.87312 a 0.69849999,0.69849999 0 0 0 0.179916,0.0503 1.7409583,1.7409583 0 0 0 0.211667,0 0.85989582,0.85989582 0 0 0 0.529167,-0.13759 0.52916666,0.52916666 0 0 0 0.179916,-0.44185 0.47095833,0.47095833 0 0 0 -0.137583,-0.37306 0.57149999,0.57149999 0 0 0 -0.394229,-0.12171 1.730375,1.730375 0 0 0 -0.5715,0.0979 2.2172083,2.2172083 0 0 0 -0.547688,0.26459 z m 3.368143,-0.92339 h 2.02406 a 1.2488333,1.2488333 0 0 1 0.86519,0.26458 0.91281249,0.91281249 0 0 1 0.127,1.23825 0.95514582,0.95514582 0 0 1 -0.51594,0.32809 1.0821458,1.0821458 0 0 1 0.68528,0.34395 1.0583333,1.0583333 0 0 1 0.26458,0.75671 1.2197292,1.2197292 0 0 1 -0.4154,0.97896 1.5636875,1.5636875 0 0 1 -1.05833,0.35454 h -1.97644 a 0.59266666,0.59266666 0 0 0 0.19315,-0.26458 1.2726458,1.2726458 0 0 0 0.0635,-0.4048 v -2.92895 a 1.1482917,1.1482917 0 0 0 -0.0609,-0.40217 0.63499999,0.63499999 0 0 0 -0.19579,-0.26458 z m 1.41817,0.635 v 1.00277 a 0.0873125,0.0873125 0 0 0 0.0344,0 0.88899999,0.88899999 0 0 0 0.11112,0 0.39952083,0.39952083 0 0 0 0.33073,-0.1561 0.66939582,0.66939582 0 0 0 0.12171,-0.42598 0.52916666,0.52916666 0 0 0 -0.10583,-0.35455 0.365125,0.365125 0 0 0 -0.29634,-0.127 0.3254375,0.3254375 0 0 0 -0.10318,0 0.47360416,0.47360416 0 0 0 -0.0926,0.0291 z m 0,1.57162 v 1.38113 a 1.2964583,1.2964583 0 0 0 0.18256,0.0476 1.0054167,1.0054167 0 0 0 0.1905,0.0185 0.42333333,0.42333333 0 0 0 0.36248,-0.19049 0.89693749,0.89693749 0 0 0 0.14288,-0.52917 0.84666666,0.84666666 0 0 0 -0.15082,-0.52917 0.52916666,0.52916666 0 0 0 -0.44714,-0.19844 z m 2.29658,-0.0265 a 2.4579791,2.4579791 0 0 1 4.09575,-1.67217 2.1801666,2.1801666 0 0 1 0.62971,1.60602 2.2516041,2.2516041 0 0 1 -0.65352,1.64043 2.6458333,2.6458333 0 0 1 -3.41842,0.0476 2.1166666,2.1166666 0 0 1 -0.64823,-1.61397 z m 1.22238,-0.16934 a 2.1484166,2.1484166 0 0 0 0.33073,1.2409 1.0212917,1.0212917 0 0 0 0.87841,0.47625 0.96043749,0.96043749 0 0 0 0.76729,-0.35719 1.5689791,1.5689791 0 0 0 0.30428,-1.03717 2.2754166,2.2754166 0 0 0 -0.33073,-1.29381 0.96308332,0.96308332 0 0 0 -0.82021,-0.48948 0.98954165,0.98954165 0 0 0 -0.82815,0.39688 1.7145,1.7145 0 0 0 -0.30162,1.05833 z m 4.08252,-2.01083 a 0.67204166,0.67204166 0 0 1 0.30956,0.31485 1.6271875,1.6271875 0 0 1 0.0926,0.62707 6.9849999,6.9849999 0 0 1 -0.14022,1.47902 5.1567291,5.1567291 0 0 1 -0.45244,1.2409 h -0.52917 v 1.5875 l 0.55033,0.14023 a 1.4790208,1.4790208 0 0 1 0.15082,-0.81756 0.59531249,0.59531249 0 0 1 0.56091,-0.2884 h 1.77271 a 0.57414583,0.57414583 0 0 1 0.5424,0.28311 1.6801041,1.6801041 0 0 1 0.16669,0.83343 l 0.55033,-0.14022 v -1.5875 h -0.58738 v -3.00568 a 1.1535833,1.1535833 0 0 1 0.0582,-0.40217 0.62177083,0.62177083 0 0 1 0.19844,-0.26458 z m 1.82827,0.61119 v 3.05593 h -1.22766 a 6.0060416,6.0060416 0 0 0 0.34925,-1.34143 12.713229,12.713229 0 0 0 0.10848,-1.7145 z m 5.24934,-0.61119 0.0609,0.88635 a 2.0214166,2.0214166 0 0 0 -0.48948,-0.24606 1.5875,1.5875 0 0 0 -0.52917,-0.09 1.1006667,1.1006667 0 0 0 -0.87842,0.37306 1.5425208,1.5425208 0 0 0 -0.31485,1.05834 2.0690416,2.0690416 0 0 0 0.35719,1.2991 1.2752917,1.2752917 0 0 0 1.05833,0.45509 2.3230416,2.3230416 0 0 0 0.62442,-0.11113 3.96875,3.96875 0 0 0 0.74348,-0.30427 l -0.29898,0.86783 a 4.0428333,4.0428333 0 0 1 -0.61648,0.1614 4.2015833,4.2015833 0 0 1 -0.70909,0.0582 2.3256875,2.3256875 0 0 1 -1.75683,-0.65352 2.2516041,2.2516041 0 0 1 -0.62177,-1.61925 2.1801666,2.1801666 0 0 1 0.64558,-1.61925 2.2833541,2.2833541 0 0 1 1.67217,-0.635 4.8524583,4.8524583 0 0 1 0.50271,0.0291 c 0.17727,0.0212 0.35983,0.0529 0.54769,0.0926 z m 3.79412,-0.0238 a 0.238125,0.238125 0 0 1 -0.0741,0.0212 h -3.04271 a 0.19314583,0.19314583 0 0 1 -0.0662,-0.0212 l -0.23812,1.00012 a 1.0292292,1.0292292 0 0 1 0.31485,-0.20637 0.97895832,0.97895832 0 0 1 0.39423,-0.0741 h 0.40746 v 2.91042 a 1.2012083,1.2012083 0 0 1 -0.0635,0.40481 0.57149999,0.57149999 0 0 1 -0.19315,0.26459 h 1.67482 a 0.59002083,0.59002083 0 0 1 -0.20109,-0.26459 1.0980208,1.0980208 0 0 1 -0.0556,-0.40481 v -2.91042 h 0.41011 a 0.85460416,0.85460416 0 0 1 0.35189,0.0582 0.3254375,0.3254375 0 0 1 0.16669,0.17992 z m -0.0847,0.0238 h 2.021424 a 1.2567708,1.2567708 0 0 1 0.86783,0.26458 0.91281249,0.91281249 0 0 1 0.127,1.23825 0.95249999,0.95249999 0 0 1 -0.52917,0.32809 1.0821458,1.0821458 0 0 1 0.68792,0.34395 1.0583333,1.0583333 0 0 1 0.26458,0.75671 1.2197292,1.2197292 0 0 1 -0.41539,0.97896 1.5663333,1.5663333 0 0 1 -1.05834,0.35454 h -1.992314 a 0.59266666,0.59266666 0 0 0 0.19315,-0.26458 1.3520208,1.3520208 0 0 0 0.0635,-0.40481 v -2.92894 a 1.1482917,1.1482917 0 0 0 -0.0609,-0.40217 0.65881249,0.65881249 0 0 0 -0.19579,-0.26458 z m 1.41817,0.635 v 1.00282 h 0.0318 a 0.92868749,0.92868749 0 0 0 0.11377,0 0.40216666,0.40216666 0 0 0 0.330734,-0.1561 0.66939582,0.66939582 0 0 0 0.12171,-0.42598 0.55562499,0.55562499 0 0 0 -0.10584,-0.35455 0.37041666,0.37041666 0 0 0 -0.298984,-0.127 0.34660416,0.34660416 0 0 0 -0.10318,0 0.44714583,0.44714583 0 0 0 -0.09,0.0291 z m 0,1.57162 v 1.38113 a 1.2964583,1.2964583 0 0 0 0.18256,0.0476 1.000125,1.000125 0 0 0 0.187854,0.0185 0.43127083,0.43127083 0 0 0 0.36513,-0.19051 0.89693749,0.89693749 0 0 0 0.14287,-0.52916 0.83079166,0.83079166 0 0 0 -0.15345,-0.52917 0.52916666,0.52916666 0 0 0 -0.4445,-0.19844 z m 2.323044,-2.20662 h 2.44475 a 0.24341666,0.24341666 0 0 0 0.0714,-0.0212 v 0.91017 a 0.64293749,0.64293749 0 0 0 -0.22225,-0.20108 0.62177083,0.62177083 0 0 0 -0.31486,-0.0741 h -0.56091 v 1.05834 h 0.88635 v 0.83872 a 0.59531249,0.59531249 0 0 0 -0.18521,-0.16139 0.48683333,0.48683333 0 0 0 -0.2487,-0.0582 h -0.45244 v 1.19856 a 0.1349375,0.1349375 0 0 0 0.0953,0.15346 1.2117917,1.2117917 0 0 0 0.36777,0.0317 h 0.48948 a 0.82814582,0.82814582 0 0 0 0.35719,-0.0767 1.0583333,1.0583333 0 0 0 0.33337,-0.24341 l -0.254,0.92868 h -2.80723 a 0.59266666,0.59266666 0 0 0 0.19315,-0.26458 1.3520208,1.3520208 0 0 0 0.0635,-0.40481 v -2.94746 a 1.1482917,1.1482917 0 0 0 -0.0609,-0.40217 0.65881249,0.65881249 0 0 0 -0.19579,-0.26458 z m 5.45042,0 h 1.67481 a 0.60589583,0.60589583 0 0 0 -0.20109,0.26458 0.99747915,0.99747915 0 0 0 -0.0556,0.40217 v 2.94481 a 0.99747915,0.99747915 0 0 0 0.0556,0.40481 0.57149999,0.57149999 0 0 0 0.20109,0.26459 h -1.67481 a 0.61912499,0.61912499 0 0 0 0.19579,-0.26459 1.143,1.143 0 0 0 0.0609,-0.40481 v -1.32292 h -1.15623 v 1.32292 a 1.2144375,1.2144375 0 0 0 0.0582,0.40481 0.58472916,0.58472916 0 0 0 0.19843,0.26459 h -1.67216 a 0.56620833,0.56620833 0 0 0 0.1905,-0.26459 1.2647083,1.2647083 0 0 0 0.0662,-0.40481 v -2.94481 a 1.1482917,1.1482917 0 0 0 -0.0609,-0.40217 0.65881249,0.65881249 0 0 0 -0.19579,-0.26458 h 1.67216 a 0.62177083,0.62177083 0 0 0 -0.19843,0.26458 1.2197292,1.2197292 0 0 0 -0.0582,0.40217 v 1.01864 h 1.15622 v -1.01864 a 1.1482917,1.1482917 0 0 0 -0.0609,-0.40217 0.65881249,0.65881249 0 0 0 -0.19579,-0.26458 z m 4.41854,0 h 1.67481 a 0.63499999,0.63499999 0 0 0 -0.20373,0.26458 1.0583333,1.0583333 0 0 0 -0.0529,0.40217 v 2.94481 a 1.0583333,1.0583333 0 0 0 0.0529,0.40481 0.59531249,0.59531249 0 0 0 0.20373,0.26459 h -1.67481 a 0.61912499,0.61912499 0 0 0 0.19579,-0.26459 1.143,1.143 0 0 0 0.0609,-0.40481 v -1.32292 h -1.15623 v 1.32292 a 1.2144375,1.2144375 0 0 0 0.0582,0.40481 0.58472916,0.58472916 0 0 0 0.19844,0.26459 h -1.68539 a 0.57149999,0.57149999 0 0 0 0.19314,-0.26459 1.2012083,1.2012083 0 0 0 0.0635,-0.40481 v -2.94481 a 1.0900833,1.0900833 0 0 0 -0.0609,-0.40217 0.63499999,0.63499999 0 0 0 -0.19579,-0.26458 h 1.67481 a 0.62177083,0.62177083 0 0 0 -0.19844,0.26458 1.2197292,1.2197292 0 0 0 -0.0582,0.40217 v 1.01864 h 1.15623 v -1.01864 a 1.1482917,1.1482917 0 0 0 -0.0609,-0.40217 0.65881249,0.65881249 0 0 0 -0.19579,-0.26458 z m 2.97391,0 h 1.55311 l 1.26471,3.52425 a 2.1775208,2.1775208 0 0 0 0.22225,0.47097 0.90752082,0.90752082 0 0 0 0.27516,0.28839 h -1.94998 a 0.50270833,0.50270833 0 0 0 0.19844,-0.18785 0.48683333,0.48683333 0 0 0 0.0714,-0.26458 0.69849999,0.69849999 0 0 0 -0.0212,-0.12436 c -0.0159,-0.0582 -0.0265,-0.10319 -0.0344,-0.13229 l -0.21431,-0.59796 h -1.28323 l -0.2249,0.61648 a 0.76464582,0.76464582 0 0 0 -0.0503,0.17463 0.67733332,0.67733332 0 0 0 0,0.12435 0.45772916,0.45772916 0 0 0 0.0529,0.21431 0.47095833,0.47095833 0 0 0 0.1614,0.17198 h -1.29646 a 1.7806458,1.7806458 0 0 0 0.46038,-0.75406 l 0.9816,-2.84693 a 1.3758333,1.3758333 0 0 0 0.0476,-0.16669 0.79374999,0.79374999 0 0 0 0.0159,-0.1561 0.30427083,0.30427083 0 0 0 -0.0635,-0.18785 0.77787499,0.77787499 0 0 0 -0.17727,-0.16669 z m 0.28311,2.38125 h 0.89164 l -0.43921,-1.29646 z m 4.64343,-2.38125 a 1.4843125,1.4843125 0 0 0 -1.0107,0.34131 1.1191875,1.1191875 0 0 0 -0.39423,0.89165 1.1350625,1.1350625 0 0 0 0.19579,0.66939 1.0583333,1.0583333 0 0 0 0.58473,0.40746 l -0.59267,1.00277 a 5.8023124,5.8023124 0 0 1 -0.36248,0.52917 2.714625,2.714625 0 0 1 -0.40481,0.44186 l 0.8255,0.0423 a 1.0133542,1.0133542 0 0 0 0.57944,-0.13494 1.7065625,1.7065625 0 0 0 0.508,-0.70114 l 0.54239,-1.09803 h 0.0556 v 1.20916 a 1.2726458,1.2726458 0 0 1 -0.0635,0.40481 0.59266666,0.59266666 0 0 1 -0.19314,0.26457 h 1.67481 a 0.57149999,0.57149999 0 0 1 -0.20108,-0.26457 0.99747915,0.99747915 0 0 1 -0.0556,-0.40481 v -2.93424 a 1.1535833,1.1535833 0 0 1 0.0582,-0.40217 0.58208333,0.58208333 0 0 1 0.19844,-0.26458 z m 0.52917,0.61119 v 1.51606 a 0.84666666,0.84666666 0 0 1 -0.52917,-0.25136 0.69849999,0.69849999 0 0 1 -0.21166,-0.52916 0.79374999,0.79374999 0 0 1 0.16933,-0.50271 0.58472916,0.58472916 0 0 1 0.46567,-0.2249 z m 4.96888,-0.91811 h 1.60337 a 0.73818749,0.73818749 0 0 0 -0.1905,0.24871 0.79374999,0.79374999 0 0 0 -0.0661,0.33867 1.7965208,1.7965208 0 0 1 1.43404,0.39423 1.6774583,1.6774583 0 0 1 -0.0238,2.51883 1.8838333,1.8838333 0 0 1 -1.41023,0.41804 1.0583333,1.0583333 0 0 0 0.0582,0.40217 0.65352083,0.65352083 0 0 0 0.19844,0.26458 h -1.61131 a 0.66145832,0.66145832 0 0 0 0.1905,-0.26458 1.0398125,1.0398125 0 0 0 0.0661,-0.40217 1.7753541,1.7753541 0 0 1 -1.42875,-0.38629 1.6748125,1.6748125 0 0 1 0.0291,-2.51354 1.8838333,1.8838333 0 0 1 1.40494,-0.42863 1.7700625,1.7700625 0 0 0 -0.10055,-0.38893 0.70379166,0.70379166 0 0 0 -0.1561,-0.19844 z m 1.35466,1.23031 v 2.0373 a 0.69056249,0.69056249 0 0 0 0.60061,-0.26459 1.1324167,1.1324167 0 0 0 0.23283,-0.73025 1.2435417,1.2435417 0 0 0 -0.22225,-0.79375 0.70643749,0.70643749 0 0 0 -0.61119,-0.28046 z m -1.10066,2.0373 v -2.0373 a 0.68791666,0.68791666 0 0 0 -0.60061,0.26459 1.1059583,1.1059583 0 0 0 -0.22489,0.72231 1.27,1.27 0 0 0 0.21695,0.79375 0.68527082,0.68527082 0 0 0 0.60855,0.26458 z m 3.53748,-2.96863 h 1.67481 a 0.58208333,0.58208333 0 0 0 -0.19844,0.26458 1.1535833,1.1535833 0 0 0 -0.0582,0.40217 v 2.11667 l 1.42081,-2.77548 h 1.27 a 0.62177083,0.62177083 0 0 0 -0.19843,0.26458 1.2197292,1.2197292 0 0 0 -0.0582,0.40217 v 2.94481 a 1.2144375,1.2144375 0 0 0 0.0582,0.40481 0.58472916,0.58472916 0 0 0 0.19843,0.26459 h -1.67216 a 0.56620833,0.56620833 0 0 0 0.1905,-0.26459 1.2647083,1.2647083 0 0 0 0.0661,-0.40481 v -2.11667 l -1.44198,2.78871 h -1.25942 a 0.61912499,0.61912499 0 0 0 0.19579,-0.26458 1.143,1.143 0 0 0 0.0608,-0.40481 v -2.94746 a 1.3626041,1.3626041 0 0 0 -0.0635,-0.40217 0.62970833,0.62970833 0 0 0 -0.19314,-0.26458 z m 4.59581,0 h 1.98437 a 1.381125,1.381125 0 0 1 0.94192,0.33073 1.0583333,1.0583333 0 0 1 0.36512,0.83079 1.1244792,1.1244792 0 0 1 -0.52916,1.01865 1.9102916,1.9102916 0 0 1 -1.27529,0.26458 0.99747915,0.99747915 0 0 0 0.46037,-0.37835 1.1244792,1.1244792 0 0 0 0.15611,-0.60325 0.95779165,0.95779165 0 0 0 -0.17463,-0.59267 0.52916666,0.52916666 0 0 0 -0.44715,-0.22225 h -0.0635 v 2.97127 a 1.2144375,1.2144375 0 0 0 0.0582,0.40481 0.58472916,0.58472916 0 0 0 0.19844,0.26459 h -1.67217 a 0.58472916,0.58472916 0 0 0 0.1905,-0.26459 1.2647083,1.2647083 0 0 0 0.0661,-0.40481 v -2.94481 a 1.1482917,1.1482917 0 0 0 -0.0609,-0.40217 0.68527082,0.68527082 0 0 0 -0.19579,-0.26458 z m 3.70416,0 a 0.79374999,0.79374999 0 0 1 0.20903,0.31221 1.0583333,1.0583333 0 0 1 0.0291,0.47096 l -0.35455,2.76754 a 1.8970625,1.8970625 0 0 1 -0.10848,0.43921 0.84402082,0.84402082 0 0 1 -0.20902,0.30162 h 1.22767 a 0.51064583,0.51064583 0 0 1 -0.23548,-0.26458 1.0583333,1.0583333 0 0 1 -0.0212,-0.47625 l 0.2249,-2.05317 0.76464,2.05317 a 1.190625,1.190625 0 0 0 0.12436,0.28046 0.82549999,0.82549999 0 0 0 0.21166,0.20373 1.9711458,1.9711458 0 0 0 0.28311,0.18256 3.317875,3.317875 0 0 0 0.36512,0.15346 l 0.89165,-2.8919 0.19579,1.99231 c 0,0.13759 0.0185,0.2249 0.0212,0.26459 0.003,0.0397 0,0.0635 0,0.0926 a 0.59266666,0.59266666 0 0 1 -0.0556,0.26459 0.84402082,0.84402082 0 0 1 -0.14552,0.21695 h 1.6801 a 1.1668125,1.1668125 0 0 1 -0.2196,-0.35983 2.38125,2.38125 0 0 1 -0.10583,-0.52917 l -0.28575,-2.76754 a 0.77522916,0.77522916 0 0 1 0.0291,-0.39158 0.46566666,0.46566666 0 0 1 0.21431,-0.21961 h -1.56369 l -0.79375,2.53471 -0.93927,-2.53471 z m 6.20713,0 h 1.5531 l 1.26471,3.52425 a 1.9552708,1.9552708 0 0 0 0.22225,0.47096 0.90222916,0.90222916 0 0 0 0.26988,0.29634 h -1.94734 a 0.50270833,0.50270833 0 0 0 0.19844,-0.18785 0.45508333,0.45508333 0 0 0 0.0476,-0.37837 c 0,-0.0582 -0.0238,-0.10317 -0.0318,-0.13228 l -0.21431,-0.59796 h -1.28323 l -0.21431,0.61118 a 0.79374999,0.79374999 0 0 0 -0.0529,0.17463 1.0133542,1.0133542 0 0 0 0,0.12436 0.45772916,0.45772916 0 0 0 0.0503,0.2143 0.48154166,0.48154166 0 0 0 0.16404,0.17199 h -1.29646 a 2.1642916,2.1642916 0 0 0 0.26458,-0.34397 2.0214166,2.0214166 0 0 0 0.18257,-0.4101 l 0.98425,-2.84692 a 0.98954165,0.98954165 0 0 0 0.045,-0.16668 0.79374999,0.79374999 0 0 0 0.0159,-0.15611 0.3175,0.3175 0 0 0 -0.0608,-0.18785 0.83872916,0.83872916 0 0 0 -0.17727,-0.16669 z m 0.28046,2.38125 h 0.89164 l -0.4392,-1.29646 z"
       id="path2"
       style="fill:#ff8335;fill-rule:evenodd;stroke-width:0.265;fill-opacity:1;stroke:none;stroke-opacity:1;stroke-dasharray:none" />
    <path
       class="cls-1"
       d="m 2.6407834,9.9305528 a 7.3421874,7.3421874 0 0 1 2.0584579,-5.19642 q 2.058459,-2.19604 5.6462077,-2.19339 3.413125,0 5.431896,2.01877 2.018771,2.01877 2.018771,5.15673 a 7.1966666,7.1966666 0 0 1 -2.116667,5.2361002 q -2.087562,2.0955 -5.598583,2.0955 -3.2940617,0 -5.3736867,-1.93939 -2.0796249,-1.9394 -2.0663959,-5.1779002 z m 3.9211249,-0.54769 q 0,2.4474002 1.058333,3.9687502 a 3.2755416,3.2755416 0 0 0 2.8231037,1.52929 3.07975,3.07975 0 0 0 2.460625,-1.14564 q 0.971021,-1.14829 0.971021,-3.32317 0,-2.5902702 -1.058333,-4.1566002 -1.058334,-1.56634 -2.627313,-1.56898 a 3.1538333,3.1538333 0 0 0 -2.6458327,1.27264 c -0.648229,0.85196 -0.971021,1.98703 -0.971021,3.41313 z m 12.5518327,-6.45054 h 6.373812 a 4.4688124,4.4688124 0 0 1 3.018896,1.05833 3.3998958,3.3998958 0 0 1 1.17475,2.667 q 0,2.17488 -1.725083,3.2729 -1.725083,1.0980202 -4.098396,0.8440202 a 3.1882291,3.1882291 0 0 0 1.500188,-1.2356002 3.6009791,3.6009791 0 0 0 0.500062,-1.94204 3.1406041,3.1406041 0 0 0 -0.558271,-1.89971 1.7197916,1.7197916 0 0 0 -1.441979,-0.70644 h -0.195792 v 9.5250002 a 3.7861875,3.7861875 0 0 0 0.187855,1.30175 1.8018125,1.8018125 0 0 0 0.637645,0.83344 h -5.373687 a 1.8520833,1.8520833 0 0 0 0.616479,-0.83344 4.0825208,4.0825208 0 0 0 0.206375,-1.30175 V 5.0675128 a 3.5268958,3.5268958 0 0 0 -0.195791,-1.28323 2.0425833,2.0425833 0 0 0 -0.627063,-0.85196 z m 11.273896,0 h 8.569854 c 0.08996,0 0.174625,0 0.264583,0 a 0.76199999,0.76199999 0 0 0 0.264583,-0.0688 l 0.198438,3.21469 a 1.7647708,1.7647708 0 0 0 -0.738188,-0.69586 2.7992916,2.7992916 0 0 0 -1.185333,-0.20373 H 34.93847 v 9.3424402 a 3.794125,3.794125 0 0 0 0.185208,1.30175 1.8018125,1.8018125 0 0 0 0.637646,0.83344 h -5.373687 a 1.8520833,1.8520833 0 0 0 0.619125,-0.83344 4.0163749,4.0163749 0 0 0 0.203729,-1.30175 V 5.0675028 a 3.5268958,3.5268958 0 0 0 -0.195792,-1.28323 2.0425833,2.0425833 0 0 0 -0.627062,-0.85196 z m 12.371916,0 a 2.619375,2.619375 0 0 1 0.568854,0.52917 0.96572915,0.96572915 0 0 1 0.195792,0.59796 2.6246666,2.6246666 0 0 1 -0.04763,0.50006 4.2994791,4.2994791 0 0 1 -0.148167,0.52917 l -3.156479,9.1572202 a 6.5854791,6.5854791 0 0 1 -0.587375,1.32292 6.4426041,6.4426041 0 0 1 -0.883708,1.09802 h 4.156604 a 1.539875,1.539875 0 0 1 -0.529167,-0.54769 1.444625,1.444625 0 0 1 -0.166687,-0.68791 2.286,2.286 0 0 1 0.195792,-0.96044 l 0.687916,-1.96056 h 4.116917 l 0.68527,1.92087 c 0.02646,0.0926 0.0635,0.23284 0.108479,0.42334 a 2.0425833,2.0425833 0 0 1 0.06879,0.40216 1.5689791,1.5689791 0 0 1 -0.224895,0.81227 1.5478125,1.5478125 0 0 1 -0.637646,0.59796 h 6.278562 a 2.7648958,2.7648958 0 0 1 -0.912812,-0.90223 6.7971457,6.7971457 0 0 1 -0.714375,-1.50812 L 47.741652,2.9323228 Z m 0.891646,7.6067702 1.452563,-4.1566002 1.410229,4.1566002 z M 64.553282,5.0675128 v 9.4535602 a 3.3549166,3.3549166 0 0 0 0.177271,1.30175 1.8520833,1.8520833 0 0 0 0.645583,0.83344 h -5.371042 a 1.9499791,1.9499791 0 0 0 0.627063,-0.83344 3.6459583,3.6459583 0 0 0 0.195791,-1.30175 V 4.8928828 h -2.674937 v 1.70657 q 0,5.3313502 -1.087438,7.8898702 -1.087437,2.55852 -3.175,2.55852 a 2.5161875,2.5161875 0 0 1 -0.481541,-0.0476 c -0.164042,-0.0318 -0.336021,-0.0741 -0.529167,-0.127 l -0.264583,-2.91042 a 2.2092708,2.2092708 0 0 0 0.452437,0.1561 2.0611041,2.0611041 0 0 0 0.470959,0.0582 q 1.095375,0 1.666875,-1.81239 0.5715,-1.8124 0.568854,-5.3234202 -0.01852,-2.19869 -0.314854,-2.97127 a 2.0372916,2.0372916 0 0 0 -0.960438,-1.12713 h 10.847917 a 1.9764375,1.9764375 0 0 0 -0.624417,0.85196 3.2940625,3.2940625 0 0 0 -0.177271,1.28323 z m 2.352145,-2.13519 h 5.373688 a 1.9182291,1.9182291 0 0 0 -0.645583,0.86254 3.7253333,3.7253333 0 0 0 -0.187854,1.28323 v 6.7548102 l 4.590521,-8.9005802 h 4.077227 a 1.9182291,1.9182291 0 0 0 -0.63764,0.86254 3.730625,3.730625 0 0 0 -0.18521,1.28323 v 9.4429802 a 3.794125,3.794125 0 0 0 0.18521,1.30175 1.8018125,1.8018125 0 0 0 0.63764,0.83344 h -5.37104 a 1.8653125,1.8653125 0 0 0 0.616479,-0.83344 4.0825208,4.0825208 0 0 0 0.206375,-1.30175 V 7.7636128 L 70.937678,16.656263 H 66.89749 a 1.9076458,1.9076458 0 0 0 0.627063,-0.83344 3.58775,3.58775 0 0 0 0.195792,-1.30175 V 5.0675128 a 4.0322499,4.0322499 0 0 0 -0.20373,-1.27265 1.9790833,1.9790833 0 0 0 -0.619125,-0.85196 z m 24.667109,-0.0794 -0.69321,3.07975 a 1.0715625,1.0715625 0 0 0 -0.52917,-0.57944 2.6749375,2.6749375 0 0 0 -1.12712,-0.18521 h -1.32292 v 9.3530202 a 3.3549166,3.3549166 0 0 0 0.17727,1.30175 1.87325,1.87325 0 0 0 0.64559,0.83344 h -5.38428 a 1.8520833,1.8520833 0 0 0 0.61648,-0.83344 4.0825208,4.0825208 0 0 0 0.20638,-1.30175 V 5.1680228 h -1.32292 a 3.2358541,3.2358541 0 0 0 -1.26471,0.23283 3.3893125,3.3893125 0 0 0 -1.01071,0.66675 l 0.76465,-3.21468 a 0.47624999,0.47624999 0 0 0 0.21431,0.0688 c 0.0794,0 0.17198,0 0.26458,0 h 9.23661 c 0.09,0 0.17463,0 0.26459,0 a 0.61383333,0.61383333 0 0 0 0.23548,-0.0688 z m -0.17727,9.6863902 h 5.31548 a 0.52916666,0.52916666 0 0 0 0.32279,-0.0582 1.0847917,1.0847917 0 0 0 0.30427,-0.26458 l 1.52929,-2.03994 h -5.32341 a 0.70643749,0.70643749 0 0 0 -0.34132,0.0794 0.96043749,0.96043749 0 0 0 -0.28575,0.26458 l -1.52929,2.03994 z m 8.942924,-9.6070202 h 12.69999 a 1.9182291,1.9182291 0 0 0 -0.64029,0.86254 3.730625,3.730625 0 0 0 -0.18521,1.28323 v 9.4429802 a 3.4104791,3.4104791 0 0 0 0.17463,1.30175 1.8785416,1.8785416 0 0 0 0.64823,0.83344 h -5.37369 a 1.8520833,1.8520833 0 0 0 0.61913,-0.83344 4.0825208,4.0825208 0 0 0 0.20637,-1.30175 V 4.8928528 h -3.60892 v 9.6281902 a 3.794125,3.794125 0 0 0 0.18521,1.30175 1.8176875,1.8176875 0 0 0 0.63765,0.83344 h -5.37104 a 1.8653125,1.8653125 0 0 0 0.61648,-0.83344 4.0825208,4.0825208 0 0 0 0.20637,-1.30175 V 5.0674828 a 3.5851041,3.5851041 0 0 0 -0.19579,-1.28323 2.0875625,2.0875625 0 0 0 -0.62706,-0.85196 z m 24.60624,2.13519 a 3.3443333,3.3443333 0 0 1 0.17728,-1.28323 1.9976041,1.9976041 0 0 1 0.64558,-0.85196 h -10.84792 a 2.0372916,2.0372916 0 0 1 0.96309,1.12713 q 0.29368,0.77258 0.31485,2.97127 0,3.5083702 -0.56885,5.3234102 -0.56886,1.81505 -1.66688,1.8124 a 2.079625,2.079625 0 0 1 -0.47096,-0.0582 2.1298958,2.1298958 0 0 1 -0.44979,-0.1561 l 0.26458,2.91041 c 0.18257,0.0529 0.35719,0.0952 0.52917,0.127 a 2.4897291,2.4897291 0 0 0 0.4789,0.0476 q 2.07962,0 3.175,-2.55852 1.09537,-2.55852 1.08743,-7.8898802 v -1.69598 h 2.667 v 9.6281902 a 3.6459583,3.6459583 0 0 1 -0.19579,1.30175 1.9076458,1.9076458 0 0 1 -0.66675,0.83344 h 5.37104 a 1.87325,1.87325 0 0 1 -0.64558,-0.83344 3.4078333,3.4078333 0 0 1 -0.17727,-1.30175 V 5.0674628 Z m 6.74688,3.27554 h 2.03729 a 6.6913124,6.6913124 0 0 1 2.55058,-4.21481 7.7840416,7.7840416 0 0 1 4.90009,-1.5875 q 3.37344,0 5.35516,2.00819 1.98173,2.00818 1.99761,5.16731 0,3.1353102 -2.0664,5.2361002 -2.06639,2.10079 -5.54037,2.0955 -3.37344,0 -5.29167,-1.93939 a 7.0008749,7.0008749 0 0 1 -2.05052,-4.80484 h -1.89971 v 4.21746 a 3.794125,3.794125 0 0 0 0.18521,1.30175 1.8018125,1.8018125 0 0 0 0.63765,0.83344 h -5.37369 a 1.8520833,1.8520833 0 0 0 0.61912,-0.83344 4.0163749,4.0163749 0 0 0 0.20373,-1.30175 V 5.0674828 a 3.5268958,3.5268958 0 0 0 -0.19579,-1.28323 2.0425833,2.0425833 0 0 0 -0.62706,-0.85196 h 5.37369 a 1.9182291,1.9182291 0 0 0 -0.63765,0.86254 3.730625,3.730625 0 0 0 -0.18521,1.28323 v 3.26496 z m 5.60652,1.03981 q 0,2.4474002 1.05833,3.9687502 a 3.2755416,3.2755416 0 0 0 2.82311,1.52929 3.0559375,3.0559375 0 0 0 2.45269,-1.14564 q 0.96043,-1.14829 0.97895,-3.32317 0,-2.5902702 -1.05833,-4.1566002 -1.05833,-1.56634 -2.62731,-1.56898 a 3.1538333,3.1538333 0 0 0 -2.64584,1.27264 c -0.64822,0.85196 -0.97102,1.98703 -0.97102,3.41313 z m 23.29921,-6.45054 0.19579,2.84163 a 6.7971457,6.7971457 0 0 0 -1.56898,-0.79375 5.0932291,5.0932291 0 0 0 -1.6854,-0.29369 q -1.78593,0 -2.81252,1.19592 -1.02658,1.19591 -1.0107,3.37079 0,2.7066802 1.14564,4.1671802 1.14565,1.4605 3.40254,1.4605 a 7.4665416,7.4665416 0 0 0 2.00025,-0.35189 12.483042,12.483042 0 0 0 2.38125,-0.98161 l -0.96308,2.79665 a 12.612687,12.612687 0 0 1 -1.97908,0.52917 12.924896,12.924896 0 0 1 -2.27542,0.18521 q -3.66712,0 -5.65679,-2.07698 -1.98967,-2.07698 -1.98967,-5.2070002 0,-3.15648 2.06904,-5.19642 2.06905,-2.03994 5.36046,-2.03729 a 14.022916,14.022916 0 0 1 1.61925,0.0979 16.848666,16.848666 0 0 1 1.76742,0.29369 z"
       id="path3"
       style="fill:#ff8335;fill-rule:evenodd;stroke-width:0.265;fill-opacity:1;stroke:none;stroke-opacity:1;stroke-dasharray:none" />
  </g>
</svg>
