<?xml version="1.0" encoding="UTF-8" standalone="no"?>
<svg
   width="264"
   height="264"
   viewBox="0 0 264 264"
   fill="none"
   version="1.1"
   id="svg38"
   sodipodi:docname="testdrivebutonfocus.svg"
   inkscape:version="1.3.2 (091e20e, 2023-11-25, custom)"
   xmlns:inkscape="http://www.inkscape.org/namespaces/inkscape"
   xmlns:sodipodi="http://sodipodi.sourceforge.net/DTD/sodipodi-0.dtd"
   xmlns="http://www.w3.org/2000/svg"
   xmlns:svg="http://www.w3.org/2000/svg">
  <sodipodi:namedview
     id="namedview38"
     pagecolor="#ffffff"
     bordercolor="#000000"
     borderopacity="0.25"
     inkscape:showpageshadow="2"
     inkscape:pageopacity="0.0"
     inkscape:pagecheckerboard="0"
     inkscape:deskcolor="#d1d1d1"
     inkscape:zoom="3.4257181"
     inkscape:cx="158.65287"
     inkscape:cy="84.21592"
     inkscape:window-width="2880"
     inkscape:window-height="1514"
     inkscape:window-x="-11"
     inkscape:window-y="-11"
     inkscape:window-maximized="1"
     inkscape:current-layer="svg38" />
  <g
     filter="url(#filter0_b_0_104)"
     id="g1">
    <circle
       cx="132"
       cy="132"
       r="110"
       fill="url(#paint0_radial_0_104)"
       fill-opacity="0.7"
       id="circle1" />
  </g>
  <path
     d="M241.134 132C241.134 192.243 192.298 241.079 132.055 241.079C71.8128 241.079 22.9765 192.243 22.9765 132C22.9765 71.7576 71.8128 22.9214 132.055 22.9214C192.298 22.9214 241.134 71.7576 241.134 132Z"
     stroke="white"
     stroke-opacity="0.5"
     id="path1" />
  <g
     filter="url(#filter1_f_0_104)"
     id="g2">
    <circle
       cx="132"
       cy="132"
       r="67"
       stroke="url(#paint1_linear_0_104)"
       stroke-width="10"
       id="circle2" />
  </g>
  <g
     filter="url(#filter2_f_0_104)"
     id="g3">
    <circle
       cx="132"
       cy="132"
       r="67"
       stroke="url(#paint2_linear_0_104)"
       stroke-width="6"
       id="circle3" />
  </g>
  <circle
     cx="132"
     cy="132"
     r="67"
     stroke="url(#paint3_linear_0_104)"
     stroke-width="3"
     id="circle4" />
  <circle
     cx="132"
     cy="132"
     r="67"
     stroke="white"
     id="circle5" />
  <path
     d="M160.592 132L161.56 132.969L162.529 132L161.56 131.032L160.592 132ZM139.648 112.993L159.623 132.969L161.56 131.032L141.585 111.056L139.648 112.993ZM159.623 131.032L139.648 151.007L141.585 152.944L161.56 132.969L159.623 131.032ZM160.592 130.631H103.519V133.37H160.592V130.631Z"
     fill="url(#paint4_linear_0_104)"
     id="path27" />
  <defs
     id="defs38">
    <filter
       id="filter0_b_0_104"
       x="-19.0921"
       y="-19.0921"
       width="302.184"
       height="302.184"
       filterUnits="userSpaceOnUse"
       color-interpolation-filters="sRGB">
      <feFlood
         flood-opacity="0"
         result="BackgroundImageFix"
         id="feFlood27" />
      <feGaussianBlur
         in="BackgroundImageFix"
         stdDeviation="20.546"
         id="feGaussianBlur27" />
      <feComposite
         in2="SourceAlpha"
         operator="in"
         result="effect1_backgroundBlur_0_104"
         id="feComposite27" />
      <feBlend
         mode="normal"
         in="SourceGraphic"
         in2="effect1_backgroundBlur_0_104"
         result="shape"
         id="feBlend27" />
    </filter>
    <filter
       id="filter1_f_0_104"
       x="0"
       y="0"
       width="264"
       height="264"
       filterUnits="userSpaceOnUse"
       color-interpolation-filters="sRGB">
      <feFlood
         flood-opacity="0"
         result="BackgroundImageFix"
         id="feFlood28" />
      <feBlend
         mode="normal"
         in="SourceGraphic"
         in2="BackgroundImageFix"
         result="shape"
         id="feBlend28" />
      <feGaussianBlur
         stdDeviation="30"
         result="effect1_foregroundBlur_0_104"
         id="feGaussianBlur28" />
    </filter>
    <filter
       id="filter2_f_0_104"
       x="47"
       y="47"
       width="170"
       height="170"
       filterUnits="userSpaceOnUse"
       color-interpolation-filters="sRGB">
      <feFlood
         flood-opacity="0"
         result="BackgroundImageFix"
         id="feFlood29" />
      <feBlend
         mode="normal"
         in="SourceGraphic"
         in2="BackgroundImageFix"
         result="shape"
         id="feBlend29" />
      <feGaussianBlur
         stdDeviation="7.5"
         result="effect1_foregroundBlur_0_104"
         id="feGaussianBlur29" />
    </filter>
    <radialGradient
       id="paint0_radial_0_104"
       cx="0"
       cy="0"
       r="1"
       gradientUnits="userSpaceOnUse"
       gradientTransform="translate(132 132) rotate(90) scale(110)">
      <stop
         offset="0.341058"
         id="stop29" />
      <stop
         offset="1"
         stop-opacity="0"
         id="stop30" />
    </radialGradient>
    <linearGradient
       id="paint1_linear_0_104"
       x1="65"
       y1="65"
       x2="203.476"
       y2="69.7969"
       gradientUnits="userSpaceOnUse">
      <stop
         stop-color="#BC000B"
         id="stop31" />
      <stop
         offset="1"
         stop-color="#BD6600"
         id="stop32" />
    </linearGradient>
    <linearGradient
       id="paint2_linear_0_104"
       x1="65"
       y1="65"
       x2="203.476"
       y2="69.7969"
       gradientUnits="userSpaceOnUse">
      <stop
         stop-color="#BC000B"
         id="stop33" />
      <stop
         offset="1"
         stop-color="#BD6600"
         id="stop34" />
    </linearGradient>
    <linearGradient
       id="paint3_linear_0_104"
       x1="65"
       y1="65"
       x2="203.476"
       y2="69.7969"
       gradientUnits="userSpaceOnUse">
      <stop
         stop-color="#BC000B"
         id="stop35" />
      <stop
         offset="1"
         stop-color="#BD6600"
         id="stop36" />
    </linearGradient>
    <linearGradient
       id="paint4_linear_0_104"
       x1="103.519"
       y1="112.025"
       x2="162.424"
       y2="114.94"
       gradientUnits="userSpaceOnUse">
      <stop
         stop-color="#BC000B"
         id="stop37" />
      <stop
         offset="1"
         stop-color="#BD6600"
         id="stop38" />
    </linearGradient>
  </defs>
  <path
     style="font-weight:bold;font-stretch:condensed;font-size:21.3333px;font-family:Arial;-inkscape-font-specification:'Arial Bold Condensed';letter-spacing:1.58px;fill:#ffffff;stroke-width:1.33333"
     d="m 132.59396,214.01615 2.52028,0.0529 -0.32055,15.26745 -9.99778,-0.20991 0.32055,-15.26744 2.50986,0.0527 -0.26654,12.6951 4.96764,0.1043 z m -12.68298,6.91167 q -0.54947,2.67328 -1.68955,4.23616 -1.15239,1.57099 -2.60188,2.15571 -1.44949,0.58473 -3.26568,0.21143 -2.63247,-0.54109 -3.87226,-2.89089 -1.24999,-2.35191 -0.48661,-6.06593 0.77178,-3.75483 2.96087,-5.5062 1.9245,-1.55053 4.56717,-1.00736 2.66307,0.54737 3.82418,2.71086 1.32085,2.47281 0.56376,6.15622 z m -2.57181,-0.42227 q 0.5306,-2.58144 -0.18258,-4.0786 -0.71527,-1.48696 -2.16415,-1.78476 -1.45908,-0.2999 -2.68034,0.77838 -1.22337,1.08848 -1.76864,3.74135 -0.53479,2.60186 0.14806,4.03961 0.67264,1.43565 2.18274,1.74604 1.51009,0.31039 2.71696,-0.74958 1.20687,-1.05997 1.74795,-3.69244 z m -17.836606,-13.21732 -4.73801,11.78083 3.47916,1.39925 2.437026,-6.05954 q 0.95226,-2.36776 1.55587,-3.44985 0.59005,-1.07632 1.37802,-1.44429 0.77829,-0.37187 2.00566,0.12176 0.35758,0.14381 1.43978,0.69132 l -0.89785,2.23246 -0.51221,-0.206 q -0.75382,-0.30317 -1.08293,-0.15484 -0.34267,0.1541 -0.73523,1.1302 l -4.209406,10.46647 -8.1567,-3.28045 5.69805,-14.16792 z m -11.16758,-0.91098 -1.74521,11.75743 -2.42268,-1.46913 1.62528,-8.28511 -6.2658,5.47109 -2.23564,-1.35571 9.62425,-7.73484 q 1.76987,-1.41192 2.84166,-1.77312 1.07178,-0.36119 1.94466,0.16813 0.83725,0.50771 1.39915,1.06773 l -1.18287,1.95062 q -0.51281,-0.3597 -0.78893,-0.52714 -0.78381,-0.47531 -1.29539,-0.33479 -0.5205,0.13511 -1.49848,1.06484 z m -11.64663,-1.06865 -3.549,4.14704 -1.91523,-1.63904 2.63466,-3.07862 q 0.82629,-0.96553 1.15352,-1.50811 0.31255,-0.54144 0.21035,-1.19102 -0.1101,-0.65636 -0.92526,-1.35397 -1.21879,-1.04302 -2.48873,-1.03299 l -4.28047,5.00177 -1.91523,-1.63905 9.92907,-11.6022 1.91523,1.63904 -3.99601,4.66937 q 1.66002,0.35122 2.79966,1.32652 1.58284,1.35458 1.70275,2.99276 0.11314,1.6461 -1.27531,3.2685 z m -4.10348,-16.88448 -11.78087,9.71642 -1.53103,-1.85633 7.85123,-6.4754 -11.072363,2.56987 -1.610566,-1.95276 11.780869,-9.71642 1.53103,1.85633 -7.68248,6.33622 10.89698,-2.43873 z m -10.10069,-13.6202 -10.970607,6.37321 1.86801,3.21552 -2.233753,1.29767 -4.997059,-8.60175 2.233753,-1.29767 1.862778,3.20652 10.970608,-6.37321 z m -4.541789,-8.35362 -14.2762,5.42104 -0.894879,-2.35664 5.67737,-2.15585 -1.27206,-3.34994 q -0.709987,-1.86973 0.08339,-3.41894 0.779942,-1.55525 2.747058,-2.30222 1.606803,-0.61015 3.257964,-0.22318 1.641423,0.39067 2.503022,2.65967 z m -7.078636,-0.009 3.768683,-1.43107 -0.946649,-2.49298 q -0.369785,-0.97382 -0.659087,-1.35423 -0.302738,-0.38645 -0.911677,-0.52292 -0.612637,-0.1462 -1.24562,0.0942 -1.898949,0.72108 -0.989278,3.11668 z m -5.386328,-27.00023 0.678823,-2.53575 q 2.609287,0.29367 3.933449,1.49138 1.313805,1.19884 1.523548,3.13543 0.263581,2.43368 -1.447114,4.14868 -1.97599,1.97424 -5.652402,2.37242 -3.883533,0.4206 -6.268578,-1.09179 -2.070398,-1.31597 -2.34856,-3.88428 -0.226568,-2.09193 1.050032,-3.65514 0.9061,-1.11446 2.854352,-1.79696 l 0.994115,2.40695 q -1.206577,0.37167 -1.781619,1.1569 -0.586519,0.776 -0.482209,1.73911 0.149176,1.37736 1.444698,2.11716 1.295523,0.73981 4.060598,0.44034 2.868637,-0.31069 3.988326,-1.29112 1.11969,-0.98043 0.972757,-2.33708 -0.107675,-0.99418 -0.952539,-1.63611 -0.85522,-0.6408 -2.567677,-0.78014 z m 5.449368,-9.34329 -0.17059,2.51505 -15.235802,-1.03341 0.67672,-9.97706 15.235803,1.03341 -0.169885,2.50466 -12.668788,-0.85929 -0.336246,4.95735 z m 1.181466,-11.61016 -14.842471,-3.59147 2.185262,-9.03103 2.510869,0.60756 -1.5924,6.58091 3.290452,0.7962 1.479707,-6.11518 2.500744,0.60511 -1.479707,6.11518 4.039663,0.97749 1.646296,-6.80365 2.500744,0.60512 z m 5.01306,-23.014507 0.40923,-0.94658 5.421289,2.34378 -0.82259,1.90271 -3.05008,-1.31863 -3.53839,8.184527 -14.016956,-6.059917 1.00034,-2.31385 11.645739,5.034767 1.955211,-4.522517 -11.645738,-5.03478 0.996206,-2.30428 z m 4.448139,-2.83321 -12.736696,-8.42461 1.32748,-2.00694 8.488236,5.61449 -5.695356,-9.83689 1.396439,-2.1112 12.736697,8.42461 -1.32748,2.00695 -8.305784,-5.49382 5.518654,9.70753 z m 15.8887,-19.79629 -1.89399,1.9938 -3.26821,-1.59602 -3.44362,3.62511 1.80467,3.13669 -1.85095,1.94849 -7.71415,-14.05187 1.84377,-1.94094 z m -7.58721,-0.78517 -5.2922,-2.65664 2.93906,5.1338 z m 15.61734,-5.33185 -7.55783,-10.203714 -3.0134,2.232007 3.88741,5.248347 q 1.519,2.05079 2.12505,3.13151 0.60821,1.06616 0.50929,1.93016 -0.0905,0.85781 -1.15361,1.64521 -0.30971,0.2294 -1.3427,0.8649 l -1.4322,-1.9336 0.44364,-0.3286 q 0.6529,-0.4836 0.6988,-0.84167 0.0481,-0.37263 -0.57814,-1.21806 l -6.71462,-9.065321 7.06475,-5.232817 9.08923,12.271248 z m 5.65335,-3.74583 -6.83723,-13.65467 2.25405,-1.128655 2.71903,5.430198 3.2041,-1.60437 q 1.78833,-0.895462 3.40984,-0.26285 1.62617,0.618634 2.56827,2.50011 0.76954,1.536848 0.55156,3.218682 -0.22263,1.672519 -2.39285,2.759195 z m -0.70751,-7.043197 1.80492,3.604609 2.38444,-1.19395 q 0.93142,-0.466386 1.28062,-0.792681 0.35385,-0.340274 0.42802,-0.959893 0.0835,-0.624283 -0.21966,-1.229708 -0.90945,-1.816276 -3.20075,-0.668965 z m 13.501656,1.042537 -4.350256,-14.638061 2.416376,-0.71812 1.71221,5.761365 4.75288,-1.4125 -1.71221,-5.761365 2.42636,-0.721087 4.35026,14.638061 -2.42636,0.721087 -1.90213,-6.400407 -4.75288,1.4125 1.90213,6.400407 z m 13.74878,-3.886616 -1.27295,-15.217661 2.51206,-0.210133 0.50623,6.051771 3.57085,-0.298701 q 1.99305,-0.166717 3.26332,1.023201 1.27979,1.178669 1.45519,3.275509 0.14327,1.712765 -0.68412,3.193136 -0.82826,1.46999 -3.2469,1.672307 z m 1.96068,-6.801685 0.33604,4.017214 2.65738,-0.222289 q 1.03804,-0.08683 1.48349,-0.259983 0.45497,-0.1844 0.75411,-0.732074 0.30951,-0.548543 0.25307,-1.223268 -0.16932,-2.024178 -2.72291,-1.810572 z m 10.45429,5.763178 -1.27295,-15.217661 2.51205,-0.210133 1.27295,15.217661 z m 6.54756,0.156994 1.76802,-15.168116 9.22917,1.075766 -0.2991,2.565957 -6.72529,-0.78391 -0.39195,3.362645 6.24934,0.728433 -0.29788,2.55561 -6.24935,-0.728433 -0.4812,4.128293 6.95292,0.810443 -0.29789,2.55561 z m 23.95652,0.681316 -0.51319,-11.875168 2.65708,0.983691 -0.0267,8.442986 5.1162,-6.558783 2.45194,0.907745 -7.98512,9.417641 q -1.47042,1.721576 -2.4544,2.279222 -0.98398,0.557646 -1.94131,0.203228 -0.91826,-0.339953 -1.57604,-0.783411 l 0.79201,-2.139345 q 0.57166,0.256066 0.87449,0.368178 0.85964,0.318253 1.33536,0.08339 0.48548,-0.231248 1.26968,-1.329374 z m 16.72112,6.572686 1.65466,2.037867 q -1.76918,1.94026 -3.51608,2.30941 -1.74173,0.36012 -3.43279,-0.60667 -2.12513,-1.21495 -2.50965,-3.60657 -0.43872,-2.758567 1.39663,-5.968871 1.93874,-3.391165 4.56307,-4.434576 2.28061,-0.903944 4.5233,0.378214 1.82671,1.044338 2.34311,2.995405 0.37053,1.387714 -0.22034,3.365683 l -2.53225,-0.60778 q 0.40724,-1.195039 0.10898,-2.121484 -0.28406,-0.930319 -1.12507,-1.411128 -1.20273,-0.687608 -2.56207,-0.07289 -1.35934,0.614722 -2.73973,3.029232 -1.43208,2.504941 -1.29544,3.986924 0.13665,1.481981 1.3213,2.159251 0.86814,0.49632 1.88373,0.18903 1.02077,-0.31633 2.13864,-1.62105 z m 7.90538,12.840267 8.11102,-9.76975 -2.88525,-2.39538 -4.17195,5.02513 q -1.63018,1.96357 -2.53555,2.80948 -0.89071,0.84455 -1.75342,0.95417 -0.8547,0.11627 -1.87255,-0.72877 -0.29654,-0.24619 -1.15969,-1.09818 l 1.53704,-1.85136 0.42477,0.35265 q 0.62513,0.519 0.98383,0.47833 0.37336,-0.042 1.0454,-0.85151 l 7.2061,-8.679763 6.76429,5.615833 -9.75452,11.74934 z m 10.43094,-0.69404 q 2.09046,-1.7545 3.95453,-2.27184 1.87875,-0.51607 3.37806,-0.0745 1.49932,0.44155 2.69131,1.86179 1.72771,2.05855 1.24071,4.67035 -0.4803,2.61978 -3.38461,5.05733 -2.93623,2.46434 -5.73967,2.47816 -2.47132,0.0207 -4.20573,-2.04587 -1.7478,-2.08249 -1.3148,-4.49938 0.49982,-2.75856 3.3802,-5.17602 z m 1.75393,1.92776 q -2.01866,1.69423 -2.38911,3.31066 -0.36247,1.60974 0.58844,2.74275 0.95761,1.14098 2.58445,1.05392 1.63481,-0.0937 3.70932,-1.83486 2.03462,-1.70762 2.39196,-3.25866 0.36404,-1.54306 -0.62705,-2.72393 -0.99109,-1.18088 -2.59528,-1.09924 -1.60418,0.0816 -3.66273,1.80936 z m 15.51671,7.67289 2.47443,4.35677 q 1.01343,1.78437 1.0989,2.69418 0.0855,0.90982 -0.45584,1.87613 -0.54131,0.96631 -1.58295,1.55791 -0.96012,0.5453 -1.98087,0.562 -1.01169,0.0115 -1.76888,-0.45686 0.20625,1.16466 -0.3184,2.18141 -0.5195,1.0258 -1.71512,1.70485 -1.44924,0.8231 -2.85076,0.69668 -1.39246,-0.13157 -2.16812,-0.94888 -0.53858,-0.56861 -1.90697,-2.97797 l -2.10404,-3.7046 z m -0.96515,3.44719 -3.07057,1.74394 0.82309,1.44923 q 0.74079,1.30431 0.96099,1.58655 0.40952,0.51014 0.97,0.6111 0.56953,0.0958 1.23075,-0.27973 0.58875,-0.33438 0.80187,-0.80283 0.22733,-0.46453 0.10699,-0.88734 -0.1152,-0.41375 -1.10292,-2.15284 z m -5.28066,2.99916 -3.55062,2.01658 1.15748,2.03799 q 0.76136,1.34054 1.11329,1.6438 0.36098,0.29811 0.91262,0.32023 0.56584,0.026 1.19988,-0.33407 0.65216,-0.37039 0.90934,-0.88782 0.27138,-0.51351 0.163,-1.06291 -0.0942,-0.54549 -0.89669,-1.95849 z M 206.35706,101.3 l 14.39063,-5.109547 0.80512,2.26756 -9.59048,3.405197 11.28437,1.3655 0.84694,2.38535 -14.39063,5.10955 -0.80512,-2.26755 9.38434,-3.33201 -11.07474,-1.42888 z m 6.05979,23.39717 15.06131,-2.52079 -0.87866,-5.24988 q -0.33702,-2.01366 -0.89241,-2.80787 -0.54511,-0.79594 -1.64479,-1.18221 -1.08941,-0.38799 -2.48664,-0.15414 -1.76709,0.29576 -2.70483,1.31875 -0.93603,1.03327 -0.95205,2.6413 -0.70945,-0.70506 -1.48549,-1.11381 -0.76576,-0.41048 -2.68416,-1.01881 l -3.18934,-1.00819 0.49693,2.96911 3.57996,1.25966 q 1.94071,0.67853 2.44095,0.9539 0.5105,0.27365 0.74022,0.63654 0.24,0.36117 0.38444,1.22417 l 0.086,0.51369 -6.28753,1.05233 z m 8.27547,-3.94095 -0.30951,-1.84927 q -0.28372,-1.69517 -0.21726,-2.18156 0.0767,-0.48811 0.48063,-0.85143 0.4039,-0.36333 1.15388,-0.48885 0.71916,-0.12037 1.1988,0.0951 0.48992,0.21373 0.73684,0.67936 0.17147,0.33039 0.45175,2.00501 l 0.3267,1.95201 z"
     id="text48"
     aria-label="                   ПОЛУЧИТЬ СПЕЦИАЛЬНЫЕ УСЛОВИЯ" />
</svg>
